<svg width="387" height="525" viewBox="0 0 387 525" fill="none" xmlns="http://www.w3.org/2000/svg">
<circle cx="204.204" cy="415.488" r="11.968" fill="url(#paint0_linear_929_12)"/>
<circle cx="204.204" cy="415.488" r="10.472" stroke="#393956" stroke-opacity="0.5" strokeWidth="2.992"/>
<circle cx="11.968" cy="11.968" r="11.968" transform="matrix(-1 0 0 1 295.834 403.52)" fill="url(#paint1_linear_929_12)"/>
<circle cx="11.968" cy="11.968" r="10.472" transform="matrix(-1 0 0 1 295.834 403.52)" stroke="#393956" stroke-opacity="0.5" strokeWidth="2.992"/>
<circle cx="170.544" cy="415.488" r="11.968" fill="url(#paint2_linear_929_12)"/>
<circle cx="170.544" cy="415.488" r="10.472" stroke="#393956" stroke-opacity="0.5" strokeWidth="2.992"/>
<circle cx="11.968" cy="11.968" r="11.968" transform="matrix(-1 0 0 1 333.234 403.52)" fill="url(#paint3_linear_929_12)"/>
<circle cx="11.968" cy="11.968" r="10.472" transform="matrix(-1 0 0 1 333.234 403.52)" stroke="#393956" stroke-opacity="0.5" strokeWidth="2.992"/>
<rect x="145.112" y="167.152" width="187.748" height="239.36" rx="23.936" fill="url(#paint4_linear_929_12)"/>
<path d="M145.112 188.272C145.112 176.608 154.568 167.152 166.232 167.152H321.64C327.837 167.152 332.86 172.175 332.86 178.372C332.86 184.568 327.837 189.592 321.64 189.592H146.432C145.703 189.592 145.112 189.001 145.112 188.272Z" fill="#5CD6C0"/>
<path d="M145.112 385.392C145.112 397.056 154.568 406.512 166.232 406.512H321.64C327.837 406.512 332.86 401.488 332.86 395.292C332.86 389.095 327.837 384.072 321.64 384.072H146.432C145.703 384.072 145.112 384.663 145.112 385.392Z" fill="#24AD94"/>
<path d="M282.744 187.793C282.744 175.567 293.461 167.152 306.68 167.152H319.396C332.616 167.152 343.332 175.567 343.332 187.793V385.871C343.332 398.097 332.616 406.512 319.396 406.512H306.68C293.461 406.512 282.744 398.097 282.744 385.871V187.793Z" fill="url(#paint5_linear_929_12)"/>
<path d="M319.396 167.152H306.68C293.461 167.152 282.744 175.567 282.744 187.793V189.592H343.332V187.793C343.332 175.567 332.616 167.152 319.396 167.152Z" fill="#1FAD94"/>
<path d="M319.396 406.512H306.68C293.461 406.512 282.744 398.096 282.744 385.87V384.072H343.332V385.87C343.332 398.096 332.616 406.512 319.396 406.512Z" fill="#149F88"/>
<rect opacity="0.5" x="157.08" y="204.552" width="5.984" height="164.56" rx="2.992" fill="url(#paint6_linear_929_12)"/>
<rect opacity="0.5" x="170.544" y="204.552" width="5.984" height="164.56" rx="2.992" fill="url(#paint7_linear_929_12)"/>
<rect opacity="0.5" x="184.008" y="204.552" width="5.984" height="164.56" rx="2.992" fill="url(#paint8_linear_929_12)"/>
<rect opacity="0.5" x="197.472" y="204.552" width="5.984" height="164.56" rx="2.992" fill="url(#paint9_linear_929_12)"/>
<rect opacity="0.5" x="210.936" y="204.552" width="5.984" height="164.56" rx="2.992" fill="url(#paint10_linear_929_12)"/>
<rect opacity="0.5" x="224.4" y="204.552" width="5.984" height="164.56" rx="2.992" fill="url(#paint11_linear_929_12)"/>
<rect opacity="0.5" x="237.864" y="204.552" width="5.984" height="164.56" rx="2.992" fill="url(#paint12_linear_929_12)"/>
<rect opacity="0.5" x="251.328" y="204.552" width="5.984" height="164.56" rx="2.992" fill="url(#paint13_linear_929_12)"/>
<rect opacity="0.5" x="264.792" y="204.552" width="5.984" height="164.56" rx="2.992" fill="url(#paint14_linear_929_12)"/>
<path d="M314.137 258.032C313.565 254.452 316.302 250.928 319.926 250.928C322.284 250.928 324.346 252.46 324.814 254.771C325.692 259.102 326.876 267.078 326.876 278.604C326.876 290.13 325.692 298.105 324.814 302.437C324.346 304.748 322.284 306.28 319.926 306.28C316.302 306.28 313.565 302.755 314.137 299.176C314.893 294.451 315.656 287.482 315.656 278.604C315.656 269.726 314.893 262.756 314.137 258.032Z" fill="url(#paint15_linear_929_12)"/>
<path d="M318.379 309.224C321.222 309.607 325.548 307.839 325.896 304.992C326.004 304.114 325.754 303.222 325.056 302.677C324.01 301.861 322.126 300.757 319.298 300.411C316.47 300.065 314.375 300.681 313.163 301.221C312.354 301.581 311.897 302.387 311.789 303.266C311.441 306.112 315.213 308.872 318.064 309.185C318.116 309.191 318.169 309.197 318.222 309.203C318.274 309.21 318.327 309.217 318.379 309.224Z" fill="#4CE0C5"/>
<path d="M318.381 248.946C315.538 249.325 311.832 252.171 312.246 255.009C312.374 255.885 312.85 256.68 313.666 257.021C314.891 257.533 316.999 258.1 319.818 257.689C322.638 257.277 324.496 256.13 325.523 255.29C326.208 254.729 326.437 253.832 326.309 252.956C325.894 250.118 321.529 248.45 318.696 248.9C318.644 248.908 318.591 248.916 318.539 248.924C318.486 248.931 318.434 248.939 318.381 248.946Z" fill="#4CE0C5"/>
<rect x="230.384" y="47.4717" width="8.976" height="119.68" fill="url(#paint16_linear_929_12)"/>
<rect x="230.384" y="47.4717" width="8.976" height="119.68" fill="url(#paint17_linear_929_12)"/>
<rect x="283.492" y="47.4717" width="8.976" height="119.68" fill="url(#paint18_linear_929_12)"/>
<rect x="283.492" y="47.4717" width="8.976" height="119.68" fill="url(#paint19_linear_929_12)"/>
<path d="M248.336 27.2756C247.51 27.2756 246.84 26.6058 246.84 25.7796V21.2916C246.84 17.9867 249.519 15.3076 252.824 15.3076H270.028C273.333 15.3076 276.012 17.9867 276.012 21.2916V25.7796C276.012 26.6058 275.342 27.2756 274.516 27.2756H248.336Z" fill="url(#paint20_linear_929_12)"/>
<path d="M230.384 52.7079C229.558 52.7079 228.888 52.0381 228.888 51.2119V25.0319C228.888 21.727 231.567 19.0479 234.872 19.0479H287.98C291.285 19.0479 293.964 21.727 293.964 25.0319V51.2119C293.964 52.0381 293.294 52.7079 292.468 52.7079H283.492C282.666 52.7079 281.996 52.0381 281.996 51.2119V34.0079C281.996 32.3554 280.657 31.0159 279.004 31.0159H243.848C242.196 31.0159 240.856 32.3554 240.856 34.0078V51.2119C240.856 52.0381 240.186 52.7079 239.36 52.7079H230.384Z" fill="url(#paint21_linear_929_12)"/>
<path d="M202 396.788V316.752C202 262.522 172.25 249.432 130.94 249.432H115.98V324.232V399.032C115.98 415.556 114.415 428.952 130.94 428.952H175.82C192.344 428.952 202 413.312 202 396.788Z" fill="url(#paint22_linear_929_12)"/>
<path d="M108.46 252.798C109.625 252.798 121.347 253.025 135.223 253.302C163.199 253.861 187.748 274.932 187.748 302.914V302.914" stroke="#1513A0" stroke-opacity="0.5" strokeWidth="5.984" strokeLinecap="round"/>
<path d="M147.356 356.396H204.952C206.604 356.396 207.944 357.735 207.944 359.388V399.032C207.944 413.904 195.888 425.96 181.016 425.96H147.356V356.396Z" fill="url(#paint23_linear_929_12)" stroke="url(#paint24_linear_929_12)" strokeWidth="5.984"/>
<path d="M38.148 305.532C38.148 276.201 61.9253 252.424 91.256 252.424H113.696C143.027 252.424 166.804 276.201 166.804 305.532V399.032C166.804 413.904 154.748 425.96 139.876 425.96H65.076C50.2041 425.96 38.148 413.904 38.148 399.032V305.532Z" fill="url(#paint25_linear_929_12)" stroke="url(#paint26_linear_929_12)" strokeWidth="5.984"/>
<path fillRule="evenodd" clipRule="evenodd" d="M189.072 301.043C187.595 301.043 186.339 302.121 186.115 303.58L184.043 317.045C183.765 318.857 185.167 320.491 187.001 320.491H191.994C193.827 320.491 195.23 318.857 194.951 317.045L192.88 303.581C192.655 302.121 191.399 301.043 189.922 301.043H189.072ZM187.837 314.507C187.494 314.507 187.195 314.741 187.112 315.074L186.738 316.57C186.62 317.042 186.977 317.499 187.463 317.499H191.531C192.018 317.499 192.375 317.042 192.257 316.57L191.883 315.074C191.8 314.741 191.5 314.507 191.157 314.507H187.837Z" fill="url(#paint27_linear_929_12)"/>
<path d="M40.3918 373.07C40.3918 352.707 59.3272 336.199 82.6852 336.199H106.328C134.357 336.199 157.08 348.529 157.08 372.965V411.211C157.08 419.356 149.506 425.959 140.163 425.959H48.8505C44.1789 425.959 40.3918 422.658 40.3918 418.585V373.07Z" fill="url(#paint28_linear_929_12)"/>
<path d="M66.8968 336.947C48.9537 336.947 34.4079 351.493 34.4079 369.436V410.357C34.4079 416.082 39.049 420.723 44.7741 420.723H131.754C137.479 420.723 142.12 416.082 142.12 410.357V369.436C142.12 351.493 127.574 336.947 109.631 336.947H66.8968Z" fill="url(#paint29_linear_929_12)"/>
<path d="M66.8968 336.947C48.9537 336.947 34.4079 351.493 34.4079 369.436V410.357C34.4079 416.082 39.049 420.723 44.7741 420.723H131.754C137.479 420.723 142.12 416.082 142.12 410.357V369.436C142.12 351.493 127.574 336.947 109.631 336.947H66.8968Z" fill="url(#paint30_linear_929_12)"/>
<path d="M66.8968 336.947C48.9537 336.947 34.4079 351.493 34.4079 369.436V410.357C34.4079 416.082 39.049 420.723 44.7741 420.723H131.754C137.479 420.723 142.12 416.082 142.12 410.357V369.436C142.12 351.493 127.574 336.947 109.631 336.947H66.8968Z" stroke="url(#paint31_linear_929_12)" strokeWidth="5.984"/>
<path opacity="0.5" d="M31.416 369.859H145.112" stroke="#1513A0" strokeWidth="5.984"/>
<path fillRule="evenodd" clipRule="evenodd" d="M125.907 369.859C124.087 369.859 122.539 371.188 122.263 372.988L119.724 389.55C119.381 391.782 121.109 393.795 123.368 393.795H129.455C131.714 393.795 133.442 391.782 133.1 389.55L130.561 372.988C130.285 371.188 128.737 369.859 126.916 369.859H125.907ZM124.433 386.295C124.009 386.295 123.641 386.583 123.538 386.994L123.08 388.833C122.935 389.414 123.375 389.977 123.975 389.977H128.954C129.554 389.977 129.994 389.414 129.849 388.833L129.391 386.994C129.288 386.583 128.92 386.295 128.496 386.295H124.433Z" fill="url(#paint32_linear_929_12)"/>
<path d="M285 465H360M285 465V459M285 465V471M360 465V459M360 465V471" stroke="#B0BED9" strokeWidth="2" strokeLinecap="round"/>
<rect width="35" height="34" transform="translate(304.5 448)" fill="white"/>
<path d="M320.4 459.647C319.686 460.403 318.851 460.781 317.896 460.781C316.771 460.781 315.874 460.389 315.206 459.604C314.538 458.812 314.204 457.775 314.204 456.492C314.204 455.648 314.374 454.884 314.714 454.198C315.054 453.513 315.537 452.979 316.164 452.599C316.791 452.218 317.518 452.027 318.344 452.027C319.633 452.027 320.655 452.508 321.411 453.469C322.167 454.43 322.545 455.716 322.545 457.327V457.925C322.545 460.233 322.023 461.994 320.98 463.207C319.938 464.42 318.382 465.035 316.313 465.053H316.059V463.286H316.366C317.626 463.269 318.593 462.967 319.267 462.381C319.94 461.789 320.318 460.878 320.4 459.647ZM318.344 459.111C318.771 459.111 319.173 458.988 319.548 458.742C319.923 458.496 320.213 458.156 320.418 457.723V456.888C320.418 455.944 320.225 455.186 319.838 454.611C319.451 454.037 318.95 453.75 318.335 453.75C317.72 453.75 317.228 454.005 316.858 454.515C316.495 455.019 316.313 455.657 316.313 456.431C316.313 457.233 316.498 457.881 316.867 458.373C317.236 458.865 317.729 459.111 318.344 459.111ZM325.27 456L324.18 455.323C324.707 454.556 324.979 453.744 324.997 452.889V451.5H326.869V452.713C326.869 453.316 326.714 453.926 326.403 454.541C326.099 455.15 325.721 455.637 325.27 456ZM328.205 456L327.115 455.323C327.643 454.556 327.915 453.744 327.933 452.889V451.5H329.805V452.713C329.805 453.316 329.649 453.926 329.339 454.541C329.034 455.15 328.656 455.637 328.205 456ZM313.193 479H307.457V478.021L310.299 474.922C310.709 474.465 311 474.084 311.172 473.779C311.348 473.471 311.436 473.162 311.436 472.854C311.436 472.447 311.32 472.119 311.09 471.869C310.863 471.619 310.557 471.494 310.17 471.494C309.709 471.494 309.352 471.635 309.098 471.916C308.844 472.197 308.717 472.582 308.717 473.07H307.293C307.293 472.551 307.41 472.084 307.645 471.67C307.883 471.252 308.221 470.928 308.658 470.697C309.1 470.467 309.607 470.352 310.182 470.352C311.01 470.352 311.662 470.561 312.139 470.979C312.619 471.393 312.859 471.967 312.859 472.701C312.859 473.127 312.738 473.574 312.496 474.043C312.258 474.508 311.865 475.037 311.318 475.631L309.232 477.863H313.193V479ZM315.924 474.084H316.791C317.229 474.08 317.574 473.967 317.828 473.744C318.086 473.521 318.215 473.199 318.215 472.777C318.215 472.371 318.107 472.057 317.893 471.834C317.682 471.607 317.357 471.494 316.92 471.494C316.537 471.494 316.223 471.605 315.977 471.828C315.73 472.047 315.607 472.334 315.607 472.689H314.184C314.184 472.252 314.299 471.854 314.529 471.494C314.764 471.135 315.088 470.855 315.502 470.656C315.92 470.453 316.387 470.352 316.902 470.352C317.754 470.352 318.422 470.566 318.906 470.996C319.395 471.422 319.639 472.016 319.639 472.777C319.639 473.16 319.516 473.521 319.27 473.861C319.027 474.197 318.713 474.451 318.326 474.623C318.795 474.783 319.15 475.035 319.393 475.379C319.639 475.723 319.762 476.133 319.762 476.609C319.762 477.375 319.498 477.984 318.971 478.438C318.447 478.891 317.758 479.117 316.902 479.117C316.082 479.117 315.41 478.898 314.887 478.461C314.363 478.023 314.102 477.441 314.102 476.715H315.525C315.525 477.09 315.65 477.395 315.9 477.629C316.154 477.863 316.494 477.98 316.92 477.98C317.361 477.98 317.709 477.863 317.963 477.629C318.217 477.395 318.344 477.055 318.344 476.609C318.344 476.16 318.211 475.814 317.945 475.572C317.68 475.33 317.285 475.209 316.762 475.209H315.924V474.084ZM323.793 477.98C324.148 477.98 324.443 477.877 324.678 477.67C324.912 477.463 325.037 477.207 325.053 476.902H326.395C326.379 477.297 326.256 477.666 326.025 478.01C325.795 478.35 325.482 478.619 325.088 478.818C324.693 479.018 324.268 479.117 323.811 479.117C322.924 479.117 322.221 478.83 321.701 478.256C321.182 477.682 320.922 476.889 320.922 475.877V475.73C320.922 474.766 321.18 473.994 321.695 473.416C322.211 472.834 322.914 472.543 323.805 472.543C324.559 472.543 325.172 472.764 325.645 473.205C326.121 473.643 326.371 474.219 326.395 474.934H325.053C325.037 474.57 324.912 474.271 324.678 474.037C324.447 473.803 324.152 473.686 323.793 473.686C323.332 473.686 322.977 473.854 322.727 474.189C322.477 474.521 322.35 475.027 322.346 475.707V475.936C322.346 476.623 322.469 477.137 322.715 477.477C322.965 477.812 323.324 477.98 323.793 477.98ZM328.809 472.66L328.85 473.322C329.295 472.803 329.904 472.543 330.678 472.543C331.525 472.543 332.105 472.867 332.418 473.516C332.879 472.867 333.527 472.543 334.363 472.543C335.062 472.543 335.582 472.736 335.922 473.123C336.266 473.51 336.441 474.08 336.449 474.834V479H335.025V474.875C335.025 474.473 334.938 474.178 334.762 473.99C334.586 473.803 334.295 473.709 333.889 473.709C333.564 473.709 333.299 473.797 333.092 473.973C332.889 474.145 332.746 474.371 332.664 474.652L332.67 479H331.246V474.828C331.227 474.082 330.846 473.709 330.104 473.709C329.533 473.709 329.129 473.941 328.891 474.406V479H327.467V472.66H328.809Z" fill="#B0BED9"/>
<path d="M145 465H277M145 465V459M145 465V471M277 465V459M277 465V471" stroke="#B0BED9" strokeWidth="2" strokeLinecap="round"/>
<rect width="39" height="34" transform="translate(190.5 448)" fill="white"/>
<path d="M203.013 465H200.886V454.726L197.748 455.798V453.996L202.74 452.159H203.013V465ZM214.685 460.438H216.275V462.152H214.685V465H212.549V462.152H207.021L206.959 460.852L212.479 452.203H214.685V460.438ZM209.2 460.438H212.549V455.095L212.391 455.376L209.2 460.438ZM218.385 456L217.295 455.323C217.822 454.556 218.095 453.744 218.112 452.889V451.5H219.984V452.713C219.984 453.316 219.829 453.926 219.519 454.541C219.214 455.15 218.836 455.637 218.385 456ZM221.32 456L220.23 455.323C220.758 454.556 221.03 453.744 221.048 452.889V451.5H222.92V452.713C222.92 453.316 222.765 453.926 222.454 454.541C222.149 455.15 221.771 455.637 221.32 456ZM197.104 474.084H197.971C198.408 474.08 198.754 473.967 199.008 473.744C199.266 473.521 199.395 473.199 199.395 472.777C199.395 472.371 199.287 472.057 199.072 471.834C198.861 471.607 198.537 471.494 198.1 471.494C197.717 471.494 197.402 471.605 197.156 471.828C196.91 472.047 196.787 472.334 196.787 472.689H195.363C195.363 472.252 195.479 471.854 195.709 471.494C195.943 471.135 196.268 470.855 196.682 470.656C197.1 470.453 197.566 470.352 198.082 470.352C198.934 470.352 199.602 470.566 200.086 470.996C200.574 471.422 200.818 472.016 200.818 472.777C200.818 473.16 200.695 473.521 200.449 473.861C200.207 474.197 199.893 474.451 199.506 474.623C199.975 474.783 200.33 475.035 200.572 475.379C200.818 475.723 200.941 476.133 200.941 476.609C200.941 477.375 200.678 477.984 200.15 478.438C199.627 478.891 198.938 479.117 198.082 479.117C197.262 479.117 196.59 478.898 196.066 478.461C195.543 478.023 195.281 477.441 195.281 476.715H196.705C196.705 477.09 196.83 477.395 197.08 477.629C197.334 477.863 197.674 477.98 198.1 477.98C198.541 477.98 198.889 477.863 199.143 477.629C199.396 477.395 199.523 477.055 199.523 476.609C199.523 476.16 199.391 475.814 199.125 475.572C198.859 475.33 198.465 475.209 197.941 475.209H197.104V474.084ZM206.707 470.428V471.605H206.531C205.734 471.617 205.098 471.836 204.621 472.262C204.145 472.688 203.861 473.291 203.771 474.072C204.229 473.592 204.812 473.352 205.523 473.352C206.277 473.352 206.871 473.617 207.305 474.148C207.742 474.68 207.961 475.365 207.961 476.205C207.961 477.072 207.705 477.775 207.193 478.314C206.686 478.85 206.018 479.117 205.189 479.117C204.338 479.117 203.646 478.803 203.115 478.174C202.588 477.545 202.324 476.721 202.324 475.701V475.215C202.324 473.719 202.688 472.547 203.414 471.699C204.145 470.852 205.193 470.428 206.561 470.428H206.707ZM205.178 474.5C204.865 474.5 204.578 474.588 204.316 474.764C204.059 474.939 203.869 475.174 203.748 475.467V475.9C203.748 476.533 203.881 477.037 204.146 477.412C204.412 477.783 204.756 477.969 205.178 477.969C205.6 477.969 205.934 477.811 206.18 477.494C206.426 477.178 206.549 476.762 206.549 476.246C206.549 475.73 206.424 475.311 206.174 474.986C205.924 474.662 205.592 474.5 205.178 474.5ZM211.793 477.98C212.148 477.98 212.443 477.877 212.678 477.67C212.912 477.463 213.037 477.207 213.053 476.902H214.395C214.379 477.297 214.256 477.666 214.025 478.01C213.795 478.35 213.482 478.619 213.088 478.818C212.693 479.018 212.268 479.117 211.811 479.117C210.924 479.117 210.221 478.83 209.701 478.256C209.182 477.682 208.922 476.889 208.922 475.877V475.73C208.922 474.766 209.18 473.994 209.695 473.416C210.211 472.834 210.914 472.543 211.805 472.543C212.559 472.543 213.172 472.764 213.645 473.205C214.121 473.643 214.371 474.219 214.395 474.934H213.053C213.037 474.57 212.912 474.271 212.678 474.037C212.447 473.803 212.152 473.686 211.793 473.686C211.332 473.686 210.977 473.854 210.727 474.189C210.477 474.521 210.35 475.027 210.346 475.707V475.936C210.346 476.623 210.469 477.137 210.715 477.477C210.965 477.812 211.324 477.98 211.793 477.98ZM216.809 472.66L216.85 473.322C217.295 472.803 217.904 472.543 218.678 472.543C219.525 472.543 220.105 472.867 220.418 473.516C220.879 472.867 221.527 472.543 222.363 472.543C223.062 472.543 223.582 472.736 223.922 473.123C224.266 473.51 224.441 474.08 224.449 474.834V479H223.025V474.875C223.025 474.473 222.938 474.178 222.762 473.99C222.586 473.803 222.295 473.709 221.889 473.709C221.564 473.709 221.299 473.797 221.092 473.973C220.889 474.145 220.746 474.371 220.664 474.652L220.67 479H219.246V474.828C219.227 474.082 218.846 473.709 218.104 473.709C217.533 473.709 217.129 473.941 216.891 474.406V479H215.467V472.66H216.809Z" fill="#B0BED9"/>
<path d="M370 404L370 167M370 404L364 404M370 404L376 404M370 167L364 167M370 167L376 167" stroke="#B0BED9" strokeWidth="2" strokeLinecap="round"/>
<g clipPath="url(#clip0_929_12)">
<rect width="39" height="34" transform="translate(353 305.5) rotate(-90)" fill="white"/>
<path d="M370 290.166L370 298.771L368.532 298.771L363.883 294.508C363.197 293.893 362.626 293.456 362.169 293.198C361.706 292.935 361.243 292.803 360.78 292.803C360.171 292.803 359.679 292.976 359.304 293.321C358.929 293.661 358.741 294.121 358.741 294.701C358.741 295.393 358.952 295.929 359.374 296.31C359.796 296.69 360.373 296.881 361.105 296.881L361.105 299.017C360.326 299.017 359.626 298.841 359.005 298.489C358.378 298.132 357.892 297.625 357.546 296.969C357.2 296.307 357.027 295.545 357.027 294.684C357.027 293.441 357.341 292.463 357.968 291.748C358.589 291.027 359.45 290.667 360.552 290.667C361.19 290.667 361.861 290.849 362.564 291.212C363.262 291.569 364.056 292.158 364.946 292.979L368.295 296.107L368.295 290.166L370 290.166ZM370 279.936L370 288.54L368.532 288.54L363.883 284.277C363.197 283.662 362.626 283.226 362.169 282.968C361.706 282.704 361.243 282.572 360.78 282.572C360.171 282.572 359.679 282.745 359.304 283.091C358.929 283.431 358.741 283.891 358.741 284.471C358.741 285.162 358.952 285.698 359.374 286.079C359.796 286.46 360.373 286.65 361.105 286.65L361.105 288.786C360.326 288.786 359.626 288.61 359.005 288.259C358.378 287.901 357.892 287.395 357.546 286.738C357.2 286.076 357.027 285.314 357.027 284.453C357.027 283.211 357.341 282.232 357.968 281.518C358.589 280.797 359.45 280.437 360.552 280.437C361.19 280.437 361.861 280.618 362.564 280.981C363.262 281.339 364.056 281.928 364.946 282.748L368.295 285.877L368.295 279.936L370 279.936ZM361 277.615L360.323 278.705C359.556 278.178 358.744 277.905 357.889 277.888L356.5 277.888L356.5 276.016L357.713 276.016C358.316 276.016 358.926 276.171 359.541 276.481C360.15 276.786 360.637 277.164 361 277.615ZM361 274.68L360.323 275.77C359.556 275.242 358.744 274.97 357.889 274.952L356.5 274.952L356.5 273.08L357.713 273.08C358.316 273.08 358.926 273.235 359.541 273.546C360.15 273.851 360.637 274.229 361 274.68ZM379.77 300.162L375.469 299.699L375.469 295.117L376.699 295.117L376.699 298.516L378.738 298.75C378.512 298.355 378.398 297.91 378.398 297.414C378.398 296.602 378.658 295.971 379.178 295.521C379.697 295.068 380.396 294.842 381.275 294.842C382.143 294.842 382.834 295.092 383.35 295.592C383.861 296.092 384.117 296.777 384.117 297.648C384.117 298.43 383.896 299.078 383.455 299.594C383.01 300.105 382.424 300.383 381.697 300.426L381.697 299.049C382.111 298.994 382.43 298.846 382.652 298.604C382.871 298.361 382.98 298.045 382.98 297.654C382.98 297.217 382.824 296.877 382.512 296.635C382.199 296.389 381.773 296.266 381.234 296.266C380.715 296.266 380.305 296.4 380.004 296.67C379.699 296.939 379.547 297.311 379.547 297.783C379.547 298.041 379.582 298.26 379.652 298.439C379.719 298.619 379.852 298.814 380.051 299.025L379.77 300.162ZM375.428 289.293L376.605 289.293L376.605 289.469C376.617 290.266 376.836 290.902 377.262 291.379C377.687 291.855 378.291 292.139 379.072 292.229C378.592 291.771 378.352 291.187 378.352 290.477C378.352 289.723 378.617 289.129 379.148 288.695C379.68 288.258 380.365 288.039 381.205 288.039C382.072 288.039 382.775 288.295 383.314 288.807C383.85 289.314 384.117 289.982 384.117 290.811C384.117 291.662 383.803 292.354 383.174 292.885C382.545 293.412 381.721 293.676 380.701 293.676L380.215 293.676C378.719 293.676 377.547 293.312 376.699 292.586C375.852 291.855 375.428 290.807 375.428 289.439L375.428 289.293ZM379.5 290.822C379.5 291.135 379.588 291.422 379.764 291.684C379.939 291.941 380.174 292.131 380.467 292.252L380.9 292.252C381.533 292.252 382.037 292.119 382.412 291.854C382.783 291.588 382.969 291.244 382.969 290.822C382.969 290.4 382.811 290.066 382.494 289.82C382.178 289.574 381.762 289.451 381.246 289.451C380.73 289.451 380.311 289.576 379.986 289.826C379.662 290.076 379.5 290.408 379.5 290.822ZM382.98 284.207C382.98 283.852 382.877 283.557 382.67 283.322C382.463 283.088 382.207 282.963 381.902 282.947L381.902 281.605C382.297 281.621 382.666 281.744 383.01 281.975C383.35 282.205 383.619 282.518 383.818 282.912C384.018 283.307 384.117 283.732 384.117 284.189C384.117 285.076 383.83 285.779 383.256 286.299C382.682 286.818 381.889 287.078 380.877 287.078L380.73 287.078C379.766 287.078 378.994 286.82 378.416 286.305C377.834 285.789 377.543 285.086 377.543 284.195C377.543 283.441 377.764 282.828 378.205 282.355C378.643 281.879 379.219 281.629 379.934 281.605L379.934 282.947C379.57 282.963 379.271 283.088 379.037 283.322C378.803 283.553 378.686 283.848 378.686 284.207C378.686 284.668 378.854 285.023 379.189 285.273C379.521 285.523 380.027 285.65 380.707 285.654L380.936 285.654C381.623 285.654 382.137 285.531 382.477 285.285C382.812 285.035 382.98 284.676 382.98 284.207ZM377.66 279.191L378.322 279.15C377.803 278.705 377.543 278.096 377.543 277.322C377.543 276.475 377.867 275.895 378.516 275.582C377.867 275.121 377.543 274.473 377.543 273.637C377.543 272.937 377.736 272.418 378.123 272.078C378.51 271.734 379.08 271.559 379.834 271.551L384 271.551L384 272.975L379.875 272.975C379.473 272.975 379.178 273.062 378.99 273.238C378.803 273.414 378.709 273.705 378.709 274.111C378.709 274.436 378.797 274.701 378.973 274.908C379.145 275.111 379.371 275.254 379.652 275.336L384 275.33L384 276.754L379.828 276.754C379.082 276.773 378.709 277.154 378.709 277.896C378.709 278.467 378.941 278.871 379.406 279.109L384 279.109L384 280.533L377.66 280.533L377.66 279.191Z" fill="#B0BED9"/>
</g>
<path d="M157.426 516.24L155.656 515.713L155.926 514.828L157.695 515.484L157.643 513.469H158.539L158.48 515.514L160.221 514.869L160.49 515.76L158.691 516.293L159.852 517.881L159.125 518.432L158.035 516.744L156.98 518.391L156.248 517.857L157.426 516.24ZM161.65 522V513.469H164.059C164.801 513.469 165.457 513.633 166.027 513.961C166.598 514.289 167.037 514.756 167.346 515.361C167.658 515.967 167.816 516.662 167.82 517.447V517.992C167.82 518.797 167.664 519.502 167.352 520.107C167.043 520.713 166.6 521.178 166.021 521.502C165.447 521.826 164.777 521.992 164.012 522H161.65ZM162.775 514.395V521.08H163.959C164.826 521.08 165.5 520.811 165.98 520.271C166.465 519.732 166.707 518.965 166.707 517.969V517.471C166.707 516.502 166.479 515.75 166.021 515.215C165.568 514.676 164.924 514.402 164.088 514.395H162.775ZM170.533 522H169.449V515.66H170.533V522ZM169.361 513.979C169.361 513.803 169.414 513.654 169.52 513.533C169.629 513.412 169.789 513.352 170 513.352C170.211 513.352 170.371 513.412 170.48 513.533C170.59 513.654 170.645 513.803 170.645 513.979C170.645 514.154 170.59 514.301 170.48 514.418C170.371 514.535 170.211 514.594 170 514.594C169.789 514.594 169.629 514.535 169.52 514.418C169.414 514.301 169.361 514.154 169.361 513.979ZM173.293 515.66L173.322 516.363C173.787 515.816 174.414 515.543 175.203 515.543C176.09 515.543 176.693 515.883 177.014 516.562C177.225 516.258 177.498 516.012 177.834 515.824C178.174 515.637 178.574 515.543 179.035 515.543C180.426 515.543 181.133 516.279 181.156 517.752V522H180.072V517.816C180.072 517.363 179.969 517.025 179.762 516.803C179.555 516.576 179.207 516.463 178.719 516.463C178.316 516.463 177.982 516.584 177.717 516.826C177.451 517.064 177.297 517.387 177.254 517.793V522H176.164V517.846C176.164 516.924 175.713 516.463 174.811 516.463C174.1 516.463 173.613 516.766 173.352 517.371V522H172.268V515.66H173.293ZM185.428 522.117C184.568 522.117 183.869 521.836 183.33 521.273C182.791 520.707 182.521 519.951 182.521 519.006V518.807C182.521 518.178 182.641 517.617 182.879 517.125C183.121 516.629 183.457 516.242 183.887 515.965C184.32 515.684 184.789 515.543 185.293 515.543C186.117 515.543 186.758 515.814 187.215 516.357C187.672 516.9 187.9 517.678 187.9 518.689V519.141H183.605C183.621 519.766 183.803 520.271 184.15 520.658C184.502 521.041 184.947 521.232 185.486 521.232C185.869 521.232 186.193 521.154 186.459 520.998C186.725 520.842 186.957 520.635 187.156 520.377L187.818 520.893C187.287 521.709 186.49 522.117 185.428 522.117ZM185.293 516.434C184.855 516.434 184.488 516.594 184.191 516.914C183.895 517.23 183.711 517.676 183.641 518.25H186.816V518.168C186.785 517.617 186.637 517.191 186.371 516.891C186.105 516.586 185.746 516.434 185.293 516.434ZM190.186 515.66L190.221 516.457C190.705 515.848 191.338 515.543 192.119 515.543C193.459 515.543 194.135 516.299 194.146 517.811V522H193.062V517.805C193.059 517.348 192.953 517.01 192.746 516.791C192.543 516.572 192.225 516.463 191.791 516.463C191.439 516.463 191.131 516.557 190.865 516.744C190.6 516.932 190.393 517.178 190.244 517.482V522H189.16V515.66H190.186ZM199.473 520.318C199.473 520.025 199.361 519.799 199.139 519.639C198.92 519.475 198.535 519.334 197.984 519.217C197.438 519.1 197.002 518.959 196.678 518.795C196.357 518.631 196.119 518.436 195.963 518.209C195.811 517.982 195.734 517.713 195.734 517.4C195.734 516.881 195.953 516.441 196.391 516.082C196.832 515.723 197.395 515.543 198.078 515.543C198.797 515.543 199.379 515.729 199.824 516.1C200.273 516.471 200.498 516.945 200.498 517.523H199.408C199.408 517.227 199.281 516.971 199.027 516.756C198.777 516.541 198.461 516.434 198.078 516.434C197.684 516.434 197.375 516.52 197.152 516.691C196.93 516.863 196.818 517.088 196.818 517.365C196.818 517.627 196.922 517.824 197.129 517.957C197.336 518.09 197.709 518.217 198.248 518.338C198.791 518.459 199.23 518.604 199.566 518.771C199.902 518.939 200.15 519.143 200.311 519.381C200.475 519.615 200.557 519.902 200.557 520.242C200.557 520.809 200.33 521.264 199.877 521.607C199.424 521.947 198.836 522.117 198.113 522.117C197.605 522.117 197.156 522.027 196.766 521.848C196.375 521.668 196.068 521.418 195.846 521.098C195.627 520.773 195.518 520.424 195.518 520.049H196.602C196.621 520.412 196.766 520.701 197.035 520.916C197.309 521.127 197.668 521.232 198.113 521.232C198.523 521.232 198.852 521.15 199.098 520.986C199.348 520.818 199.473 520.596 199.473 520.318ZM203.146 522H202.062V515.66H203.146V522ZM201.975 513.979C201.975 513.803 202.027 513.654 202.133 513.533C202.242 513.412 202.402 513.352 202.613 513.352C202.824 513.352 202.984 513.412 203.094 513.533C203.203 513.654 203.258 513.803 203.258 513.979C203.258 514.154 203.203 514.301 203.094 514.418C202.984 514.535 202.824 514.594 202.613 514.594C202.402 514.594 202.242 514.535 202.133 514.418C202.027 514.301 201.975 514.154 201.975 513.979ZM204.6 518.771C204.6 518.15 204.721 517.592 204.963 517.096C205.209 516.6 205.549 516.217 205.982 515.947C206.42 515.678 206.918 515.543 207.477 515.543C208.34 515.543 209.037 515.842 209.568 516.439C210.104 517.037 210.371 517.832 210.371 518.824V518.9C210.371 519.518 210.252 520.072 210.014 520.564C209.779 521.053 209.441 521.434 209 521.707C208.562 521.98 208.059 522.117 207.488 522.117C206.629 522.117 205.932 521.818 205.396 521.221C204.865 520.623 204.6 519.832 204.6 518.848V518.771ZM205.689 518.9C205.689 519.604 205.852 520.168 206.176 520.594C206.504 521.02 206.941 521.232 207.488 521.232C208.039 521.232 208.477 521.018 208.801 520.588C209.125 520.154 209.287 519.549 209.287 518.771C209.287 518.076 209.121 517.514 208.789 517.084C208.461 516.65 208.023 516.434 207.477 516.434C206.941 516.434 206.51 516.646 206.182 517.072C205.854 517.498 205.689 518.107 205.689 518.9ZM212.756 515.66L212.791 516.457C213.275 515.848 213.908 515.543 214.689 515.543C216.029 515.543 216.705 516.299 216.717 517.811V522H215.633V517.805C215.629 517.348 215.523 517.01 215.316 516.791C215.113 516.572 214.795 516.463 214.361 516.463C214.01 516.463 213.701 516.557 213.436 516.744C213.17 516.932 212.963 517.178 212.814 517.482V522H211.73V515.66H212.756ZM222.043 520.318C222.043 520.025 221.932 519.799 221.709 519.639C221.49 519.475 221.105 519.334 220.555 519.217C220.008 519.1 219.572 518.959 219.248 518.795C218.928 518.631 218.689 518.436 218.533 518.209C218.381 517.982 218.305 517.713 218.305 517.4C218.305 516.881 218.523 516.441 218.961 516.082C219.402 515.723 219.965 515.543 220.648 515.543C221.367 515.543 221.949 515.729 222.395 516.1C222.844 516.471 223.068 516.945 223.068 517.523H221.979C221.979 517.227 221.852 516.971 221.598 516.756C221.348 516.541 221.031 516.434 220.648 516.434C220.254 516.434 219.945 516.52 219.723 516.691C219.5 516.863 219.389 517.088 219.389 517.365C219.389 517.627 219.492 517.824 219.699 517.957C219.906 518.09 220.279 518.217 220.818 518.338C221.361 518.459 221.801 518.604 222.137 518.771C222.473 518.939 222.721 519.143 222.881 519.381C223.045 519.615 223.127 519.902 223.127 520.242C223.127 520.809 222.9 521.264 222.447 521.607C221.994 521.947 221.406 522.117 220.684 522.117C220.176 522.117 219.727 522.027 219.336 521.848C218.945 521.668 218.639 521.418 218.416 521.098C218.197 520.773 218.088 520.424 218.088 520.049H219.172C219.191 520.412 219.336 520.701 219.605 520.916C219.879 521.127 220.238 521.232 220.684 521.232C221.094 521.232 221.422 521.15 221.668 520.986C221.918 520.818 222.043 520.596 222.043 520.318ZM228.693 522H227.609V515.66H228.693V522ZM227.521 513.979C227.521 513.803 227.574 513.654 227.68 513.533C227.789 513.412 227.949 513.352 228.16 513.352C228.371 513.352 228.531 513.412 228.641 513.533C228.75 513.654 228.805 513.803 228.805 513.979C228.805 514.154 228.75 514.301 228.641 514.418C228.531 514.535 228.371 514.594 228.16 514.594C227.949 514.594 227.789 514.535 227.68 514.418C227.574 514.301 227.521 514.154 227.521 513.979ZM231.459 515.66L231.494 516.457C231.979 515.848 232.611 515.543 233.393 515.543C234.732 515.543 235.408 516.299 235.42 517.811V522H234.336V517.805C234.332 517.348 234.227 517.01 234.02 516.791C233.816 516.572 233.498 516.463 233.064 516.463C232.713 516.463 232.404 516.557 232.139 516.744C231.873 516.932 231.666 517.178 231.518 517.482V522H230.434V515.66H231.459ZM239.598 521.232C239.984 521.232 240.322 521.115 240.611 520.881C240.9 520.646 241.061 520.354 241.092 520.002H242.117C242.098 520.365 241.973 520.711 241.742 521.039C241.512 521.367 241.203 521.629 240.816 521.824C240.434 522.02 240.027 522.117 239.598 522.117C238.734 522.117 238.047 521.83 237.535 521.256C237.027 520.678 236.773 519.889 236.773 518.889V518.707C236.773 518.09 236.887 517.541 237.113 517.061C237.34 516.58 237.664 516.207 238.086 515.941C238.512 515.676 239.014 515.543 239.592 515.543C240.303 515.543 240.893 515.756 241.361 516.182C241.834 516.607 242.086 517.16 242.117 517.84H241.092C241.061 517.43 240.904 517.094 240.623 516.832C240.346 516.566 240.002 516.434 239.592 516.434C239.041 516.434 238.613 516.633 238.309 517.031C238.008 517.426 237.857 517.998 237.857 518.748V518.953C237.857 519.684 238.008 520.246 238.309 520.641C238.609 521.035 239.039 521.232 239.598 521.232ZM244.514 522H243.43V513H244.514V522ZM250.168 521.373C249.746 521.869 249.127 522.117 248.311 522.117C247.635 522.117 247.119 521.922 246.764 521.531C246.412 521.137 246.234 520.555 246.23 519.785V515.66H247.314V519.756C247.314 520.717 247.705 521.197 248.486 521.197C249.314 521.197 249.865 520.889 250.139 520.271V515.66H251.223V522H250.191L250.168 521.373ZM252.611 518.777C252.611 517.805 252.842 517.023 253.303 516.434C253.764 515.84 254.367 515.543 255.113 515.543C255.855 515.543 256.443 515.797 256.877 516.305V513H257.961V522H256.965L256.912 521.32C256.479 521.852 255.875 522.117 255.102 522.117C254.367 522.117 253.768 521.816 253.303 521.215C252.842 520.613 252.611 519.828 252.611 518.859V518.777ZM253.695 518.9C253.695 519.619 253.844 520.182 254.141 520.588C254.438 520.994 254.848 521.197 255.371 521.197C256.059 521.197 256.561 520.889 256.877 520.271V517.359C256.553 516.762 256.055 516.463 255.383 516.463C254.852 516.463 254.438 516.668 254.141 517.078C253.844 517.488 253.695 518.096 253.695 518.9ZM262.279 522.117C261.42 522.117 260.721 521.836 260.182 521.273C259.643 520.707 259.373 519.951 259.373 519.006V518.807C259.373 518.178 259.492 517.617 259.73 517.125C259.973 516.629 260.309 516.242 260.738 515.965C261.172 515.684 261.641 515.543 262.145 515.543C262.969 515.543 263.609 515.814 264.066 516.357C264.523 516.9 264.752 517.678 264.752 518.689V519.141H260.457C260.473 519.766 260.654 520.271 261.002 520.658C261.354 521.041 261.799 521.232 262.338 521.232C262.721 521.232 263.045 521.154 263.311 520.998C263.576 520.842 263.809 520.635 264.008 520.377L264.67 520.893C264.139 521.709 263.342 522.117 262.279 522.117ZM262.145 516.434C261.707 516.434 261.34 516.594 261.043 516.914C260.746 517.23 260.562 517.676 260.492 518.25H263.668V518.168C263.637 517.617 263.488 517.191 263.223 516.891C262.957 516.586 262.598 516.434 262.145 516.434ZM270.072 516.428C270.553 515.838 271.178 515.543 271.947 515.543C273.287 515.543 273.963 516.299 273.975 517.811V522H272.891V517.805C272.887 517.348 272.781 517.01 272.574 516.791C272.371 516.572 272.053 516.463 271.619 516.463C271.268 516.463 270.959 516.557 270.693 516.744C270.428 516.932 270.221 517.178 270.072 517.482V522H268.988V513H270.072V516.428ZM279.512 522C279.449 521.875 279.398 521.652 279.359 521.332C278.855 521.855 278.254 522.117 277.555 522.117C276.93 522.117 276.416 521.941 276.014 521.59C275.615 521.234 275.416 520.785 275.416 520.242C275.416 519.582 275.666 519.07 276.166 518.707C276.67 518.34 277.377 518.156 278.287 518.156H279.342V517.658C279.342 517.279 279.229 516.979 279.002 516.756C278.775 516.529 278.441 516.416 278 516.416C277.613 516.416 277.289 516.514 277.027 516.709C276.766 516.904 276.635 517.141 276.635 517.418H275.545C275.545 517.102 275.656 516.797 275.879 516.504C276.105 516.207 276.41 515.973 276.793 515.801C277.18 515.629 277.604 515.543 278.064 515.543C278.795 515.543 279.367 515.727 279.781 516.094C280.195 516.457 280.41 516.959 280.426 517.6V520.518C280.426 521.1 280.5 521.562 280.648 521.906V522H279.512ZM277.713 521.174C278.053 521.174 278.375 521.086 278.68 520.91C278.984 520.734 279.205 520.506 279.342 520.225V518.924H278.492C277.164 518.924 276.5 519.312 276.5 520.09C276.5 520.43 276.613 520.695 276.84 520.887C277.066 521.078 277.357 521.174 277.713 521.174ZM283.15 515.66L283.186 516.457C283.67 515.848 284.303 515.543 285.084 515.543C286.424 515.543 287.1 516.299 287.111 517.811V522H286.027V517.805C286.023 517.348 285.918 517.01 285.711 516.791C285.508 516.572 285.189 516.463 284.756 516.463C284.404 516.463 284.096 516.557 283.83 516.744C283.564 516.932 283.357 517.178 283.209 517.482V522H282.125V515.66H283.15ZM288.482 518.777C288.482 517.805 288.713 517.023 289.174 516.434C289.635 515.84 290.238 515.543 290.984 515.543C291.727 515.543 292.314 515.797 292.748 516.305V513H293.832V522H292.836L292.783 521.32C292.35 521.852 291.746 522.117 290.973 522.117C290.238 522.117 289.639 521.816 289.174 521.215C288.713 520.613 288.482 519.828 288.482 518.859V518.777ZM289.566 518.9C289.566 519.619 289.715 520.182 290.012 520.588C290.309 520.994 290.719 521.197 291.242 521.197C291.93 521.197 292.432 520.889 292.748 520.271V517.359C292.424 516.762 291.926 516.463 291.254 516.463C290.723 516.463 290.309 516.668 290.012 517.078C289.715 517.488 289.566 518.096 289.566 518.9ZM296.697 522H295.613V513H296.697V522ZM301.068 522.117C300.209 522.117 299.51 521.836 298.971 521.273C298.432 520.707 298.162 519.951 298.162 519.006V518.807C298.162 518.178 298.281 517.617 298.52 517.125C298.762 516.629 299.098 516.242 299.527 515.965C299.961 515.684 300.43 515.543 300.934 515.543C301.758 515.543 302.398 515.814 302.855 516.357C303.312 516.9 303.541 517.678 303.541 518.689V519.141H299.246C299.262 519.766 299.443 520.271 299.791 520.658C300.143 521.041 300.588 521.232 301.127 521.232C301.51 521.232 301.834 521.154 302.1 520.998C302.365 520.842 302.598 520.635 302.797 520.377L303.459 520.893C302.928 521.709 302.131 522.117 301.068 522.117ZM300.934 516.434C300.496 516.434 300.129 516.594 299.832 516.914C299.535 517.23 299.352 517.676 299.281 518.25H302.457V518.168C302.426 517.617 302.277 517.191 302.012 516.891C301.746 516.586 301.387 516.434 300.934 516.434ZM308.492 520.318C308.492 520.025 308.381 519.799 308.158 519.639C307.939 519.475 307.555 519.334 307.004 519.217C306.457 519.1 306.021 518.959 305.697 518.795C305.377 518.631 305.139 518.436 304.982 518.209C304.83 517.982 304.754 517.713 304.754 517.4C304.754 516.881 304.973 516.441 305.41 516.082C305.852 515.723 306.414 515.543 307.098 515.543C307.816 515.543 308.398 515.729 308.844 516.1C309.293 516.471 309.518 516.945 309.518 517.523H308.428C308.428 517.227 308.301 516.971 308.047 516.756C307.797 516.541 307.48 516.434 307.098 516.434C306.703 516.434 306.395 516.52 306.172 516.691C305.949 516.863 305.838 517.088 305.838 517.365C305.838 517.627 305.941 517.824 306.148 517.957C306.355 518.09 306.729 518.217 307.268 518.338C307.811 518.459 308.25 518.604 308.586 518.771C308.922 518.939 309.17 519.143 309.33 519.381C309.494 519.615 309.576 519.902 309.576 520.242C309.576 520.809 309.35 521.264 308.896 521.607C308.443 521.947 307.855 522.117 307.133 522.117C306.625 522.117 306.176 522.027 305.785 521.848C305.395 521.668 305.088 521.418 304.865 521.098C304.646 520.773 304.537 520.424 304.537 520.049H305.621C305.641 520.412 305.785 520.701 306.055 520.916C306.328 521.127 306.688 521.232 307.133 521.232C307.543 521.232 307.871 521.15 308.117 520.986C308.367 520.818 308.492 520.596 308.492 520.318ZM317.879 522C317.816 521.875 317.766 521.652 317.727 521.332C317.223 521.855 316.621 522.117 315.922 522.117C315.297 522.117 314.783 521.941 314.381 521.59C313.982 521.234 313.783 520.785 313.783 520.242C313.783 519.582 314.033 519.07 314.533 518.707C315.037 518.34 315.744 518.156 316.654 518.156H317.709V517.658C317.709 517.279 317.596 516.979 317.369 516.756C317.143 516.529 316.809 516.416 316.367 516.416C315.98 516.416 315.656 516.514 315.395 516.709C315.133 516.904 315.002 517.141 315.002 517.418H313.912C313.912 517.102 314.023 516.797 314.246 516.504C314.473 516.207 314.777 515.973 315.16 515.801C315.547 515.629 315.971 515.543 316.432 515.543C317.162 515.543 317.734 515.727 318.148 516.094C318.562 516.457 318.777 516.959 318.793 517.6V520.518C318.793 521.1 318.867 521.562 319.016 521.906V522H317.879ZM316.08 521.174C316.42 521.174 316.742 521.086 317.047 520.91C317.352 520.734 317.572 520.506 317.709 520.225V518.924H316.859C315.531 518.924 314.867 519.312 314.867 520.09C314.867 520.43 314.98 520.695 315.207 520.887C315.434 521.078 315.725 521.174 316.08 521.174ZM321.518 515.66L321.553 516.457C322.037 515.848 322.67 515.543 323.451 515.543C324.791 515.543 325.467 516.299 325.479 517.811V522H324.395V517.805C324.391 517.348 324.285 517.01 324.078 516.791C323.875 516.572 323.557 516.463 323.123 516.463C322.771 516.463 322.463 516.557 322.197 516.744C321.932 516.932 321.725 517.178 321.576 517.482V522H320.492V515.66H321.518ZM326.85 518.777C326.85 517.805 327.08 517.023 327.541 516.434C328.002 515.84 328.605 515.543 329.352 515.543C330.094 515.543 330.682 515.797 331.115 516.305V513H332.199V522H331.203L331.15 521.32C330.717 521.852 330.113 522.117 329.34 522.117C328.605 522.117 328.006 521.816 327.541 521.215C327.08 520.613 326.85 519.828 326.85 518.859V518.777ZM327.934 518.9C327.934 519.619 328.082 520.182 328.379 520.588C328.676 520.994 329.086 521.197 329.609 521.197C330.297 521.197 330.799 520.889 331.115 520.271V517.359C330.791 516.762 330.293 516.463 329.621 516.463C329.09 516.463 328.676 516.668 328.379 517.078C328.082 517.488 327.934 518.096 327.934 518.9ZM342.477 520.506L343.695 515.66H344.779L342.934 522H342.055L340.514 517.195L339.014 522H338.135L336.295 515.66H337.373L338.621 520.406L340.098 515.66H340.971L342.477 520.506ZM346.971 516.428C347.451 515.838 348.076 515.543 348.846 515.543C350.186 515.543 350.861 516.299 350.873 517.811V522H349.789V517.805C349.785 517.348 349.68 517.01 349.473 516.791C349.27 516.572 348.951 516.463 348.518 516.463C348.166 516.463 347.857 516.557 347.592 516.744C347.326 516.932 347.119 517.178 346.971 517.482V522H345.887V513H346.971V516.428ZM355.127 522.117C354.268 522.117 353.568 521.836 353.029 521.273C352.49 520.707 352.221 519.951 352.221 519.006V518.807C352.221 518.178 352.34 517.617 352.578 517.125C352.82 516.629 353.156 516.242 353.586 515.965C354.02 515.684 354.488 515.543 354.992 515.543C355.816 515.543 356.457 515.814 356.914 516.357C357.371 516.9 357.6 517.678 357.6 518.689V519.141H353.305C353.32 519.766 353.502 520.271 353.85 520.658C354.201 521.041 354.646 521.232 355.186 521.232C355.568 521.232 355.893 521.154 356.158 520.998C356.424 520.842 356.656 520.635 356.855 520.377L357.518 520.893C356.986 521.709 356.189 522.117 355.127 522.117ZM354.992 516.434C354.555 516.434 354.188 516.594 353.891 516.914C353.594 517.23 353.41 517.676 353.34 518.25H356.516V518.168C356.484 517.617 356.336 517.191 356.07 516.891C355.805 516.586 355.445 516.434 354.992 516.434ZM361.49 522.117C360.631 522.117 359.932 521.836 359.393 521.273C358.854 520.707 358.584 519.951 358.584 519.006V518.807C358.584 518.178 358.703 517.617 358.941 517.125C359.184 516.629 359.52 516.242 359.949 515.965C360.383 515.684 360.852 515.543 361.355 515.543C362.18 515.543 362.82 515.814 363.277 516.357C363.734 516.9 363.963 517.678 363.963 518.689V519.141H359.668C359.684 519.766 359.865 520.271 360.213 520.658C360.564 521.041 361.01 521.232 361.549 521.232C361.932 521.232 362.256 521.154 362.521 520.998C362.787 520.842 363.02 520.635 363.219 520.377L363.881 520.893C363.35 521.709 362.553 522.117 361.49 522.117ZM361.355 516.434C360.918 516.434 360.551 516.594 360.254 516.914C359.957 517.23 359.773 517.676 359.703 518.25H362.879V518.168C362.848 517.617 362.699 517.191 362.434 516.891C362.168 516.586 361.809 516.434 361.355 516.434ZM366.4 522H365.316V513H366.4V522ZM371.832 520.318C371.832 520.025 371.721 519.799 371.498 519.639C371.279 519.475 370.895 519.334 370.344 519.217C369.797 519.1 369.361 518.959 369.037 518.795C368.717 518.631 368.479 518.436 368.322 518.209C368.17 517.982 368.094 517.713 368.094 517.4C368.094 516.881 368.312 516.441 368.75 516.082C369.191 515.723 369.754 515.543 370.438 515.543C371.156 515.543 371.738 515.729 372.184 516.1C372.633 516.471 372.857 516.945 372.857 517.523H371.768C371.768 517.227 371.641 516.971 371.387 516.756C371.137 516.541 370.82 516.434 370.438 516.434C370.043 516.434 369.734 516.52 369.512 516.691C369.289 516.863 369.178 517.088 369.178 517.365C369.178 517.627 369.281 517.824 369.488 517.957C369.695 518.09 370.068 518.217 370.607 518.338C371.15 518.459 371.59 518.604 371.926 518.771C372.262 518.939 372.51 519.143 372.67 519.381C372.834 519.615 372.916 519.902 372.916 520.242C372.916 520.809 372.689 521.264 372.236 521.607C371.783 521.947 371.195 522.117 370.473 522.117C369.965 522.117 369.516 522.027 369.125 521.848C368.734 521.668 368.428 521.418 368.205 521.098C367.986 520.773 367.877 520.424 367.877 520.049H368.961C368.98 520.412 369.125 520.701 369.395 520.916C369.668 521.127 370.027 521.232 370.473 521.232C370.883 521.232 371.211 521.15 371.457 520.986C371.707 520.818 371.832 520.596 371.832 520.318Z" fill="#B0BED9"/>
<defs>
<linearGradient id="paint0_linear_929_12" x1="204.204" y1="403.52" x2="204.204" y2="427.456" gradientUnits="userSpaceOnUse">
<stop stop-color="#8CABCA"/>
<stop offset="1" stop-color="#4E8393"/>
</linearGradient>
<linearGradient id="paint1_linear_929_12" x1="11.968" y1="0" x2="11.968" y2="23.936" gradientUnits="userSpaceOnUse">
<stop stop-color="#8CABCA"/>
<stop offset="1" stop-color="#4E8393"/>
</linearGradient>
<linearGradient id="paint2_linear_929_12" x1="170.544" y1="403.52" x2="170.544" y2="427.456" gradientUnits="userSpaceOnUse">
<stop stop-color="#8CABCA"/>
<stop offset="1" stop-color="#4E8393"/>
</linearGradient>
<linearGradient id="paint3_linear_929_12" x1="11.968" y1="0" x2="11.968" y2="23.936" gradientUnits="userSpaceOnUse">
<stop stop-color="#8CABCA"/>
<stop offset="1" stop-color="#4E8393"/>
</linearGradient>
<linearGradient id="paint4_linear_929_12" x1="169.796" y1="167.152" x2="238.986" y2="406.512" gradientUnits="userSpaceOnUse">
<stop stop-color="#5CD6C0"/>
<stop offset="1" stop-color="#1FB297"/>
</linearGradient>
<linearGradient id="paint5_linear_929_12" x1="282.744" y1="310.02" x2="358.063" y2="305.868" gradientUnits="userSpaceOnUse">
<stop stop-color="#12A58B"/>
<stop offset="1" stop-color="#22C3B3"/>
</linearGradient>
<linearGradient id="paint6_linear_929_12" x1="157.08" y1="285.483" x2="163.064" y2="285.483" gradientUnits="userSpaceOnUse">
<stop stop-color="#29A38D"/>
<stop offset="1" stop-color="#22C3A6"/>
</linearGradient>
<linearGradient id="paint7_linear_929_12" x1="170.544" y1="285.483" x2="176.528" y2="285.483" gradientUnits="userSpaceOnUse">
<stop stop-color="#29A38D"/>
<stop offset="1" stop-color="#22C3A6"/>
</linearGradient>
<linearGradient id="paint8_linear_929_12" x1="184.008" y1="285.483" x2="189.992" y2="285.483" gradientUnits="userSpaceOnUse">
<stop stop-color="#29A38D"/>
<stop offset="1" stop-color="#22C3A6"/>
</linearGradient>
<linearGradient id="paint9_linear_929_12" x1="197.472" y1="285.483" x2="203.456" y2="285.483" gradientUnits="userSpaceOnUse">
<stop stop-color="#29A38D"/>
<stop offset="1" stop-color="#22C3A6"/>
</linearGradient>
<linearGradient id="paint10_linear_929_12" x1="210.936" y1="285.483" x2="216.92" y2="285.483" gradientUnits="userSpaceOnUse">
<stop stop-color="#29A38D"/>
<stop offset="1" stop-color="#22C3A6"/>
</linearGradient>
<linearGradient id="paint11_linear_929_12" x1="224.4" y1="285.483" x2="230.384" y2="285.483" gradientUnits="userSpaceOnUse">
<stop stop-color="#29A38D"/>
<stop offset="1" stop-color="#22C3A6"/>
</linearGradient>
<linearGradient id="paint12_linear_929_12" x1="237.864" y1="285.483" x2="243.848" y2="285.483" gradientUnits="userSpaceOnUse">
<stop stop-color="#29A38D"/>
<stop offset="1" stop-color="#22C3A6"/>
</linearGradient>
<linearGradient id="paint13_linear_929_12" x1="251.328" y1="285.483" x2="257.312" y2="285.483" gradientUnits="userSpaceOnUse">
<stop stop-color="#29A38D"/>
<stop offset="1" stop-color="#22C3A6"/>
</linearGradient>
<linearGradient id="paint14_linear_929_12" x1="264.792" y1="285.483" x2="270.776" y2="285.483" gradientUnits="userSpaceOnUse">
<stop stop-color="#29A38D"/>
<stop offset="1" stop-color="#22C3A6"/>
</linearGradient>
<linearGradient id="paint15_linear_929_12" x1="319.77" y1="250.928" x2="319.77" y2="306.28" gradientUnits="userSpaceOnUse">
<stop stop-color="#5CD6C0"/>
<stop offset="1" stop-color="#22C3A6"/>
</linearGradient>
<linearGradient id="paint16_linear_929_12" x1="230.384" y1="109.652" x2="239.36" y2="109.652" gradientUnits="userSpaceOnUse">
<stop stop-color="#C4C4C4"/>
<stop offset="1" stop-color="#C4C4C4" stop-opacity="0"/>
</linearGradient>
<linearGradient id="paint17_linear_929_12" x1="230.384" y1="107.312" x2="239.36" y2="107.312" gradientUnits="userSpaceOnUse">
<stop stop-color="#B0C6DC"/>
<stop offset="0.604167" stop-color="#A5BBCB"/>
<stop offset="0.760417" stop-color="#95ABB3"/>
<stop offset="1" stop-color="#91A7AD"/>
</linearGradient>
<linearGradient id="paint18_linear_929_12" x1="283.492" y1="109.652" x2="292.468" y2="109.652" gradientUnits="userSpaceOnUse">
<stop stop-color="#C4C4C4"/>
<stop offset="1" stop-color="#C4C4C4" stop-opacity="0"/>
</linearGradient>
<linearGradient id="paint19_linear_929_12" x1="283.492" y1="107.312" x2="292.468" y2="107.312" gradientUnits="userSpaceOnUse">
<stop stop-color="#B0C6DC"/>
<stop offset="0.604167" stop-color="#A5BBCB"/>
<stop offset="0.760417" stop-color="#95ABB3"/>
<stop offset="1" stop-color="#91A7AD"/>
</linearGradient>
<linearGradient id="paint20_linear_929_12" x1="247.588" y1="16.0556" x2="276.76" y2="18.2996" gradientUnits="userSpaceOnUse">
<stop stop-color="#6B94BD"/>
<stop offset="0.375" stop-color="#5E8DBA"/>
<stop offset="0.719177" stop-color="#4B78A0"/>
<stop offset="1" stop-color="#254F74"/>
</linearGradient>
<linearGradient id="paint21_linear_929_12" x1="228.888" y1="35.8779" x2="293.964" y2="35.8779" gradientUnits="userSpaceOnUse">
<stop stop-color="#5E87B0"/>
<stop offset="0.411458" stop-color="#5A88B2"/>
<stop offset="0.92626" stop-color="#49799C"/>
<stop offset="0.952589" stop-color="#336375"/>
<stop offset="1" stop-color="#19414D"/>
</linearGradient>
<linearGradient id="paint22_linear_929_12" x1="158.97" y1="249.432" x2="158.97" y2="428.952" gradientUnits="userSpaceOnUse">
<stop stop-color="#605DEC"/>
<stop offset="1" stop-color="#2A26D9"/>
</linearGradient>
<linearGradient id="paint23_linear_929_12" x1="177.65" y1="353.404" x2="177.65" y2="428.952" gradientUnits="userSpaceOnUse">
<stop stop-color="#1C18CE"/>
<stop offset="1" stop-color="#6F6DEE"/>
</linearGradient>
<linearGradient id="paint24_linear_929_12" x1="177.65" y1="353.404" x2="177.65" y2="428.952" gradientUnits="userSpaceOnUse">
<stop stop-color="#4F4CE6"/>
<stop offset="1" stop-color="#8482ED" stop-opacity="0"/>
</linearGradient>
<linearGradient id="paint25_linear_929_12" x1="79.288" y1="255.416" x2="148.478" y2="428.952" gradientUnits="userSpaceOnUse">
<stop stop-color="#8F8DF2"/>
<stop offset="0.357212" stop-color="#7977E9"/>
<stop offset="1" stop-color="#5D5AE2"/>
</linearGradient>
<linearGradient id="paint26_linear_929_12" x1="139.196" y1="428.952" x2="-3.72832" y2="332.107" gradientUnits="userSpaceOnUse">
<stop stop-color="#7370EB"/>
<stop offset="1" stop-color="#B0AFF4"/>
</linearGradient>
<linearGradient id="paint27_linear_929_12" x1="187" y1="302.165" x2="193.732" y2="319.369" gradientUnits="userSpaceOnUse">
<stop stop-color="#BCBAF7"/>
<stop offset="1" stop-color="#8F8DF2"/>
</linearGradient>
<linearGradient id="paint28_linear_929_12" x1="135.014" y1="340.687" x2="44.5058" y2="425.959" gradientUnits="userSpaceOnUse">
<stop stop-color="#5855E9"/>
<stop offset="0.473958" stop-color="#4642E3"/>
<stop offset="0.6808" stop-color="#5F5DE3"/>
<stop offset="1" stop-color="#7679E9"/>
</linearGradient>
<linearGradient id="paint29_linear_929_12" x1="91.0383" y1="334.383" x2="91.0383" y2="417.731" gradientUnits="userSpaceOnUse">
<stop stop-color="#817FF0"/>
<stop offset="0.511799" stop-color="#6563E5"/>
<stop offset="1" stop-color="#5452E0"/>
</linearGradient>
<linearGradient id="paint30_linear_929_12" x1="52.1967" y1="339.939" x2="115.197" y2="424.593" gradientUnits="userSpaceOnUse">
<stop stop-color="#8F8DF2"/>
<stop offset="0.476102" stop-color="#777BE9"/>
<stop offset="1" stop-color="#5D5AE2"/>
</linearGradient>
<linearGradient id="paint31_linear_929_12" x1="116.008" y1="417.731" x2="50.2399" y2="340.03" gradientUnits="userSpaceOnUse">
<stop stop-color="#7370EB"/>
<stop offset="1" stop-color="#B0AFF4"/>
</linearGradient>
<linearGradient id="paint32_linear_929_12" x1="123.487" y1="371.24" x2="131.795" y2="392.394" gradientUnits="userSpaceOnUse">
<stop stop-color="#BCBAF7"/>
<stop offset="1" stop-color="#8F8DF2"/>
</linearGradient>
<clipPath id="clip0_929_12">
<rect width="39" height="34" fill="white" transform="translate(353 305.5) rotate(-90)"/>
</clipPath>
</defs>
</svg>
