<svg width="374" height="449" viewBox="0 0 374 449" fill="none" xmlns="http://www.w3.org/2000/svg">
    <circle cx="204.204" cy="415.488" r="11.968" fill="url(#6ibl7d633a)"/>
    <circle cx="204.204" cy="415.488" r="10.472" stroke="#393956" stroke-opacity=".5" strokeWidth="2.992"/>
    <circle cx="11.968" cy="11.968" r="11.968" transform="matrix(-1 0 0 1 295.834 403.52)" fill="url(#q9f2qs3tob)"/>
    <circle cx="11.968" cy="11.968" r="10.472" transform="matrix(-1 0 0 1 295.834 403.52)" stroke="#393956" stroke-opacity=".5" strokeWidth="2.992"/>
    <circle cx="170.544" cy="415.488" r="11.968" fill="url(#zaagazy43c)"/>
    <circle cx="170.544" cy="415.488" r="10.472" stroke="#393956" stroke-opacity=".5" strokeWidth="2.992"/>
    <circle cx="11.968" cy="11.968" r="11.968" transform="matrix(-1 0 0 1 333.234 403.52)" fill="url(#vqoqmhrh4d)"/>
    <circle cx="11.968" cy="11.968" r="10.472" transform="matrix(-1 0 0 1 333.234 403.52)" stroke="#393956" stroke-opacity=".5" strokeWidth="2.992"/>
    <rect x="145.112" y="167.152" width="187.748" height="239.36" rx="23.936" fill="url(#dkqghsvite)"/>
    <path d="M145.112 188.272c0-11.664 9.456-21.12 21.12-21.12H321.64c6.197 0 11.22 5.023 11.22 11.22 0 6.196-5.023 11.22-11.22 11.22H146.432a1.32 1.32 0 0 1-1.32-1.32z" fill="#5CD6C0"/>
    <path d="M145.112 385.392c0 11.664 9.456 21.12 21.12 21.12H321.64c6.197 0 11.22-5.023 11.22-11.22 0-6.196-5.023-11.22-11.22-11.22H146.432a1.32 1.32 0 0 0-1.32 1.32z" fill="#24AD94"/>
    <path d="M282.744 187.793c0-12.226 10.717-20.641 23.936-20.641h12.716c13.22 0 23.936 8.415 23.936 20.641v198.078c0 12.226-10.716 20.641-23.936 20.641H306.68c-13.219 0-23.936-8.415-23.936-20.641V187.793z" fill="url(#su7gfpikef)"/>
    <path d="M319.396 167.152H306.68c-13.219 0-23.936 8.415-23.936 20.641v1.799h60.588v-1.799c0-12.226-10.716-20.641-23.936-20.641z" fill="#1FAD94"/>
    <path d="M319.396 406.512H306.68c-13.219 0-23.936-8.415-23.936-20.641v-1.799h60.588v1.799c0 12.226-10.716 20.641-23.936 20.641z" fill="#149F88"/>
    <rect opacity=".5" x="157.08" y="204.552" width="5.984" height="164.56" rx="2.992" fill="url(#1zuo5m2vvg)"/>
    <rect opacity=".5" x="170.544" y="204.552" width="5.984" height="164.56" rx="2.992" fill="url(#2ar5q9p2hh)"/>
    <rect opacity=".5" x="184.008" y="204.552" width="5.984" height="164.56" rx="2.992" fill="url(#q1g8tvf8si)"/>
    <rect opacity=".5" x="197.472" y="204.552" width="5.984" height="164.56" rx="2.992" fill="url(#qs7b0qyixj)"/>
    <rect opacity=".5" x="210.936" y="204.552" width="5.984" height="164.56" rx="2.992" fill="url(#w5vthmrxlk)"/>
    <rect opacity=".5" x="224.4" y="204.552" width="5.984" height="164.56" rx="2.992" fill="url(#m9ao8btjml)"/>
    <rect opacity=".5" x="237.864" y="204.552" width="5.984" height="164.56" rx="2.992" fill="url(#sxi9y04atm)"/>
    <rect opacity=".5" x="251.328" y="204.552" width="5.984" height="164.56" rx="2.992" fill="url(#m0qmxki7xn)"/>
    <rect opacity=".5" x="264.792" y="204.552" width="5.984" height="164.56" rx="2.992" fill="url(#8lenjxhtmo)"/>
    <path d="M314.138 258.032c-.573-3.579 2.164-7.104 5.788-7.104 2.358 0 4.42 1.532 4.888 3.843.879 4.332 2.062 12.307 2.062 23.833 0 11.526-1.183 19.502-2.062 23.833-.468 2.311-2.53 3.843-4.888 3.843-3.624 0-6.361-3.525-5.788-7.104.755-4.724 1.518-11.694 1.518-20.572 0-8.878-.763-15.847-1.518-20.572z" fill="url(#u1dbykp7ep)"/>
    <path d="M318.379 309.224c2.843.383 7.169-1.385 7.517-4.232.108-.878-.142-1.77-.839-2.315-1.047-.816-2.931-1.92-5.759-2.266-2.828-.346-4.923.27-6.135.81-.809.36-1.266 1.166-1.373 2.045-.349 2.846 3.423 5.606 6.274 5.919l.158.018.157.021zM318.381 248.946c-2.843.379-6.549 3.226-6.135 6.064.128.875.604 1.67 1.42 2.011 1.225.512 3.333 1.08 6.152.668 2.82-.411 4.678-1.558 5.705-2.399.685-.56.914-1.458.786-2.334-.415-2.838-4.78-4.505-7.613-4.056-.052.009-.105.016-.157.024a8.565 8.565 0 0 1-.158.022z" fill="#4CE0C5"/>
    <path fill="url(#tqfk4lv1vq)" d="M230.384 47.472h8.976v119.68h-8.976z"/>
    <path fill="url(#pbbt1xnpzr)" d="M230.384 47.472h8.976v119.68h-8.976z"/>
    <path fill="url(#peq58vylfs)" d="M283.492 47.472h8.976v119.68h-8.976z"/>
    <path fill="url(#4l80ja7w9t)" d="M283.492 47.472h8.976v119.68h-8.976z"/>
    <path d="M248.336 27.276c-.826 0-1.496-.67-1.496-1.496v-4.488a5.984 5.984 0 0 1 5.984-5.984h17.204a5.984 5.984 0 0 1 5.984 5.984v4.488c0 .826-.669 1.496-1.496 1.496h-26.18z" fill="url(#t1d9ijz92u)"/>
    <path d="M230.384 52.708c-.826 0-1.496-.67-1.496-1.496v-26.18a5.984 5.984 0 0 1 5.984-5.984h53.108a5.984 5.984 0 0 1 5.984 5.984v26.18c0 .826-.67 1.496-1.496 1.496h-8.976c-.826 0-1.496-.67-1.496-1.496V34.008a2.992 2.992 0 0 0-2.992-2.992h-35.156a2.992 2.992 0 0 0-2.992 2.992v17.204c0 .826-.67 1.496-1.496 1.496h-8.976z" fill="url(#nfsw2eg0pv)"/>
    <path d="M202 396.788v-80.036c0-54.23-29.749-67.32-71.06-67.32h-14.96v149.6c0 16.524-1.564 29.92 14.96 29.92h44.88c16.524 0 26.18-15.64 26.18-32.164z" fill="url(#rfqyr6jbmw)"/>
    <path d="M108.46 252.798c1.166 0 12.887.227 26.763.504 27.976.559 52.525 21.63 52.525 49.612v0" stroke="#1513A0" stroke-opacity=".5" strokeWidth="5.984" strokeLinecap="round"/>
    <path d="M147.356 356.396h57.596a2.992 2.992 0 0 1 2.992 2.992v39.644c0 14.872-12.056 26.928-26.928 26.928h-33.66v-69.564z" fill="url(#9rlck4lcwx)" stroke="url(#jk7hdcz1ay)" strokeWidth="5.984"/>
    <path d="M38.148 305.532c0-29.331 23.777-53.108 53.108-53.108h22.44c29.331 0 53.108 23.777 53.108 53.108v93.5c0 14.872-12.056 26.928-26.928 26.928h-74.8c-14.872 0-26.928-12.056-26.928-26.928v-93.5z" fill="url(#envcbzyslz)" stroke="url(#2f9zrk3bxA)" strokeWidth="5.984"/>
    <path fill-rule="evenodd" clip-rule="evenodd" d="M189.073 301.044a2.993 2.993 0 0 0-2.958 2.537l-2.071 13.464a2.991 2.991 0 0 0 2.957 3.447h4.993a2.991 2.991 0 0 0 2.957-3.447l-2.071-13.464a2.992 2.992 0 0 0-2.957-2.537h-.85zm-1.235 13.464a.748.748 0 0 0-.726.567l-.374 1.496a.748.748 0 0 0 .726.929h4.068a.748.748 0 0 0 .725-.929l-.374-1.496a.748.748 0 0 0-.725-.567h-3.32z" fill="url(#yn17c3i8gB)"/>
    <path d="M40.392 373.071c0-20.363 18.936-36.871 42.294-36.871h23.642c28.03 0 50.752 12.33 50.752 36.766v38.246c0 8.145-7.574 14.748-16.917 14.748H48.851c-4.672 0-8.459-3.301-8.459-7.374v-45.515z" fill="url(#izozg7jg3C)"/>
    <path d="M66.897 336.948c-17.943 0-32.489 14.546-32.489 32.489v40.921c0 5.725 4.641 10.366 10.367 10.366h86.979c5.725 0 10.366-4.641 10.366-10.366v-40.921c0-17.943-14.545-32.489-32.489-32.489H66.897z" fill="url(#2ikp2kmrrD)"/>
    <path d="M66.897 336.948c-17.943 0-32.489 14.546-32.489 32.489v40.921c0 5.725 4.641 10.366 10.367 10.366h86.979c5.725 0 10.366-4.641 10.366-10.366v-40.921c0-17.943-14.545-32.489-32.489-32.489H66.897z" fill="url(#vsd38n6fzE)"/>
    <path d="M66.897 336.948c-17.943 0-32.489 14.546-32.489 32.489v40.921c0 5.725 4.641 10.366 10.367 10.366h86.979c5.725 0 10.366-4.641 10.366-10.366v-40.921c0-17.943-14.545-32.489-32.489-32.489H66.897z" stroke="url(#j6vfrk8poF)" strokeWidth="5.984"/>
    <path opacity=".5" d="M31.416 369.86h113.696" stroke="#1513A0" strokeWidth="5.984"/>
    <path fill-rule="evenodd" clip-rule="evenodd" d="M125.908 369.86a3.688 3.688 0 0 0-3.645 3.129l-2.539 16.562a3.687 3.687 0 0 0 3.645 4.245h6.087a3.686 3.686 0 0 0 3.644-4.245l-2.539-16.562a3.687 3.687 0 0 0-3.644-3.129h-1.009zm-1.475 16.436a.921.921 0 0 0-.894.698l-.458 1.839a.922.922 0 0 0 .894 1.145h4.98a.922.922 0 0 0 .894-1.145l-.458-1.839a.921.921 0 0 0-.894-.698h-4.064z" fill="url(#deih57rbtG)"/>
    <defs>
        <linearGradient id="6ibl7d633a" x1="204.204" y1="403.52" x2="204.204" y2="427.456" gradientUnits="userSpaceOnUse">
            <stop stop-color="#8CABCA"/>
            <stop offset="1" stop-color="#4E8393"/>
        </linearGradient>
        <linearGradient id="q9f2qs3tob" x1="11.968" y1="0" x2="11.968" y2="23.936" gradientUnits="userSpaceOnUse">
            <stop stop-color="#8CABCA"/>
            <stop offset="1" stop-color="#4E8393"/>
        </linearGradient>
        <linearGradient id="zaagazy43c" x1="170.544" y1="403.52" x2="170.544" y2="427.456" gradientUnits="userSpaceOnUse">
            <stop stop-color="#8CABCA"/>
            <stop offset="1" stop-color="#4E8393"/>
        </linearGradient>
        <linearGradient id="vqoqmhrh4d" x1="11.968" y1="0" x2="11.968" y2="23.936" gradientUnits="userSpaceOnUse">
            <stop stop-color="#8CABCA"/>
            <stop offset="1" stop-color="#4E8393"/>
        </linearGradient>
        <linearGradient id="dkqghsvite" x1="169.796" y1="167.152" x2="238.986" y2="406.512" gradientUnits="userSpaceOnUse">
            <stop stop-color="#5CD6C0"/>
            <stop offset="1" stop-color="#1FB297"/>
        </linearGradient>
        <linearGradient id="su7gfpikef" x1="282.744" y1="310.02" x2="358.063" y2="305.868" gradientUnits="userSpaceOnUse">
            <stop stop-color="#12A58B"/>
            <stop offset="1" stop-color="#22C3B3"/>
        </linearGradient>
        <linearGradient id="1zuo5m2vvg" x1="157.08" y1="285.483" x2="163.064" y2="285.483" gradientUnits="userSpaceOnUse">
            <stop stop-color="#29A38D"/>
            <stop offset="1" stop-color="#22C3A6"/>
        </linearGradient>
        <linearGradient id="2ar5q9p2hh" x1="170.544" y1="285.483" x2="176.528" y2="285.483" gradientUnits="userSpaceOnUse">
            <stop stop-color="#29A38D"/>
            <stop offset="1" stop-color="#22C3A6"/>
        </linearGradient>
        <linearGradient id="q1g8tvf8si" x1="184.008" y1="285.483" x2="189.992" y2="285.483" gradientUnits="userSpaceOnUse">
            <stop stop-color="#29A38D"/>
            <stop offset="1" stop-color="#22C3A6"/>
        </linearGradient>
        <linearGradient id="qs7b0qyixj" x1="197.472" y1="285.483" x2="203.456" y2="285.483" gradientUnits="userSpaceOnUse">
            <stop stop-color="#29A38D"/>
            <stop offset="1" stop-color="#22C3A6"/>
        </linearGradient>
        <linearGradient id="w5vthmrxlk" x1="210.936" y1="285.483" x2="216.92" y2="285.483" gradientUnits="userSpaceOnUse">
            <stop stop-color="#29A38D"/>
            <stop offset="1" stop-color="#22C3A6"/>
        </linearGradient>
        <linearGradient id="m9ao8btjml" x1="224.4" y1="285.483" x2="230.384" y2="285.483" gradientUnits="userSpaceOnUse">
            <stop stop-color="#29A38D"/>
            <stop offset="1" stop-color="#22C3A6"/>
        </linearGradient>
        <linearGradient id="sxi9y04atm" x1="237.864" y1="285.483" x2="243.848" y2="285.483" gradientUnits="userSpaceOnUse">
            <stop stop-color="#29A38D"/>
            <stop offset="1" stop-color="#22C3A6"/>
        </linearGradient>
        <linearGradient id="m0qmxki7xn" x1="251.328" y1="285.483" x2="257.312" y2="285.483" gradientUnits="userSpaceOnUse">
            <stop stop-color="#29A38D"/>
            <stop offset="1" stop-color="#22C3A6"/>
        </linearGradient>
        <linearGradient id="8lenjxhtmo" x1="264.792" y1="285.483" x2="270.776" y2="285.483" gradientUnits="userSpaceOnUse">
            <stop stop-color="#29A38D"/>
            <stop offset="1" stop-color="#22C3A6"/>
        </linearGradient>
        <linearGradient id="u1dbykp7ep" x1="319.77" y1="250.928" x2="319.77" y2="306.28" gradientUnits="userSpaceOnUse">
            <stop stop-color="#5CD6C0"/>
            <stop offset="1" stop-color="#22C3A6"/>
        </linearGradient>
        <linearGradient id="tqfk4lv1vq" x1="230.384" y1="109.652" x2="239.36" y2="109.652" gradientUnits="userSpaceOnUse">
            <stop stop-color="#C4C4C4"/>
            <stop offset="1" stop-color="#C4C4C4" stop-opacity="0"/>
        </linearGradient>
        <linearGradient id="pbbt1xnpzr" x1="230.384" y1="107.312" x2="239.36" y2="107.312" gradientUnits="userSpaceOnUse">
            <stop stop-color="#B0C6DC"/>
            <stop offset=".604" stop-color="#A5BBCB"/>
            <stop offset=".76" stop-color="#95ABB3"/>
            <stop offset="1" stop-color="#91A7AD"/>
        </linearGradient>
        <linearGradient id="peq58vylfs" x1="283.492" y1="109.652" x2="292.468" y2="109.652" gradientUnits="userSpaceOnUse">
            <stop stop-color="#C4C4C4"/>
            <stop offset="1" stop-color="#C4C4C4" stop-opacity="0"/>
        </linearGradient>
        <linearGradient id="4l80ja7w9t" x1="283.492" y1="107.312" x2="292.468" y2="107.312" gradientUnits="userSpaceOnUse">
            <stop stop-color="#B0C6DC"/>
            <stop offset=".604" stop-color="#A5BBCB"/>
            <stop offset=".76" stop-color="#95ABB3"/>
            <stop offset="1" stop-color="#91A7AD"/>
        </linearGradient>
        <linearGradient id="t1d9ijz92u" x1="247.588" y1="16.056" x2="276.76" y2="18.3" gradientUnits="userSpaceOnUse">
            <stop stop-color="#6B94BD"/>
            <stop offset=".375" stop-color="#5E8DBA"/>
            <stop offset=".719" stop-color="#4B78A0"/>
            <stop offset="1" stop-color="#254F74"/>
        </linearGradient>
        <linearGradient id="nfsw2eg0pv" x1="228.888" y1="35.878" x2="293.964" y2="35.878" gradientUnits="userSpaceOnUse">
            <stop stop-color="#5E87B0"/>
            <stop offset=".411" stop-color="#5A88B2"/>
            <stop offset=".926" stop-color="#49799C"/>
            <stop offset=".953" stop-color="#336375"/>
            <stop offset="1" stop-color="#19414D"/>
        </linearGradient>
        <linearGradient id="rfqyr6jbmw" x1="158.97" y1="249.432" x2="158.97" y2="428.952" gradientUnits="userSpaceOnUse">
            <stop stop-color="#605DEC"/>
            <stop offset="1" stop-color="#2A26D9"/>
        </linearGradient>
        <linearGradient id="9rlck4lcwx" x1="177.65" y1="353.404" x2="177.65" y2="428.952" gradientUnits="userSpaceOnUse">
            <stop stop-color="#1C18CE"/>
            <stop offset="1" stop-color="#6F6DEE"/>
        </linearGradient>
        <linearGradient id="jk7hdcz1ay" x1="177.65" y1="353.404" x2="177.65" y2="428.952" gradientUnits="userSpaceOnUse">
            <stop stop-color="#4F4CE6"/>
            <stop offset="1" stop-color="#8482ED" stop-opacity="0"/>
        </linearGradient>
        <linearGradient id="envcbzyslz" x1="79.288" y1="255.416" x2="148.478" y2="428.952" gradientUnits="userSpaceOnUse">
            <stop stop-color="#8F8DF2"/>
            <stop offset=".357" stop-color="#7977E9"/>
            <stop offset="1" stop-color="#5D5AE2"/>
        </linearGradient>
        <linearGradient id="2f9zrk3bxA" x1="139.196" y1="428.952" x2="-3.728" y2="332.108" gradientUnits="userSpaceOnUse">
            <stop stop-color="#7370EB"/>
            <stop offset="1" stop-color="#B0AFF4"/>
        </linearGradient>
        <linearGradient id="yn17c3i8gB" x1="187.001" y1="302.166" x2="193.733" y2="319.37" gradientUnits="userSpaceOnUse">
            <stop stop-color="#BCBAF7"/>
            <stop offset="1" stop-color="#8F8DF2"/>
        </linearGradient>
        <linearGradient id="izozg7jg3C" x1="135.014" y1="340.688" x2="44.506" y2="425.96" gradientUnits="userSpaceOnUse">
            <stop stop-color="#5855E9"/>
            <stop offset=".474" stop-color="#4642E3"/>
            <stop offset=".681" stop-color="#5F5DE3"/>
            <stop offset="1" stop-color="#7679E9"/>
        </linearGradient>
        <linearGradient id="2ikp2kmrrD" x1="91.039" y1="334.383" x2="91.039" y2="417.732" gradientUnits="userSpaceOnUse">
            <stop stop-color="#817FF0"/>
            <stop offset=".512" stop-color="#6563E5"/>
            <stop offset="1" stop-color="#5452E0"/>
        </linearGradient>
        <linearGradient id="vsd38n6fzE" x1="52.197" y1="339.94" x2="115.197" y2="424.593" gradientUnits="userSpaceOnUse">
            <stop stop-color="#8F8DF2"/>
            <stop offset=".476" stop-color="#777BE9"/>
            <stop offset="1" stop-color="#5D5AE2"/>
        </linearGradient>
        <linearGradient id="j6vfrk8poF" x1="116.008" y1="417.732" x2="50.24" y2="340.031" gradientUnits="userSpaceOnUse">
            <stop stop-color="#7370EB"/>
            <stop offset="1" stop-color="#B0AFF4"/>
        </linearGradient>
        <linearGradient id="deih57rbtG" x1="123.487" y1="371.241" x2="131.795" y2="392.395" gradientUnits="userSpaceOnUse">
            <stop stop-color="#BCBAF7"/>
            <stop offset="1" stop-color="#8F8DF2"/>
        </linearGradient>
    </defs>
</svg>
