<svg width="131" height="54" viewBox="0 0 131 54" fill="none" xmlns="http://www.w3.org/2000/svg">
    <path d="M19.653 16.305H12V12h20.709v4.305h-7.653v18.693a.9.9 0 0 1-.9.9 4.502 4.502 0 0 1-4.503-4.502v-15.09zM44.375 21.115a2 2 0 0 1-1.788 2.136l-1.013.105c-1.454.135-2.482.542-3.082 1.22-.6.656-.9 1.537-.9 2.644v7.678a1 1 0 0 1-1 1h-2.23a2 2 0 0 1-2-2V20.254a1 1 0 0 1 1-1h3.022a1 1 0 0 1 1 1v1.814c.854-1.921 2.62-2.972 5.298-3.153a1.538 1.538 0 0 1 1.636 1.422l.057.778zM46.262 20.254a1 1 0 0 1 1-1h3.229a1 1 0 0 1 1 1v14.644a1 1 0 0 1-1 1h-2.23a2 2 0 0 1-2-2V20.254zM66.022 18.848c1.454 0 2.747.372 3.878 1.118 1.155.723 2.044 1.752 2.667 3.085.646 1.31.97 2.825.97 4.542 0 1.718-.324 3.232-.97 4.543-.623 1.288-1.5 2.282-2.632 2.983-1.131.7-2.436 1.05-3.913 1.05-1.154 0-2.205-.225-3.152-.677-.923-.475-1.639-1.13-2.147-1.967v7.604c0 .48-.39.871-.871.871a4.358 4.358 0 0 1-4.358-4.358V20.254a1 1 0 0 1 1-1h3.16a1 1 0 0 1 1 1v1.34c.508-.86 1.235-1.526 2.182-2 .946-.498 2.008-.747 3.186-.747zM64.498 32.27c1.224 0 2.17-.395 2.84-1.186.67-.814 1.004-1.978 1.004-3.492 0-1.537-.335-2.723-1.004-3.56-.67-.858-1.616-1.287-2.84-1.287-1.224 0-2.17.418-2.84 1.254-.67.814-1.004 1.989-1.004 3.525 0 1.515.335 2.69 1.004 3.526.67.813 1.617 1.22 2.84 1.22zM95.279 18.848c1.939 0 3.382.576 4.329 1.728.946 1.153 1.419 2.915 1.419 5.288v8.034a2 2 0 0 1-2 2h-1.229a2 2 0 0 1-2-2v-7.864c0-1.13-.184-1.944-.554-2.44-.346-.498-.947-.747-1.8-.747-1.623 0-2.19 1.516-2.19 3.865v7.186a2 2 0 0 1-2 2h-1.23a2 2 0 0 1-2-2v-7.864c0-1.13-.184-1.944-.553-2.44-.347-.498-.947-.747-1.801-.747-1.623 0-2.19 1.516-2.19 3.865v7.186a2 2 0 0 1-2 2h-1.229a2 2 0 0 1-2-2V22.254a3 3 0 0 1 3-3h1.091a1 1 0 0 1 1 1v1.237c1.145-1.85 1.66-2.643 4.233-2.643 2.516 0 4.201 1.028 5.056 3.084 1.178-2.018 1.915-3.084 4.648-3.084zM111.554 18.848c2.54 0 4.41.587 5.611 1.762 1.223 1.175 1.835 2.995 1.835 5.458v7.305a3 3 0 0 1-3 3h-1.952v-2.95a4.168 4.168 0 0 1-1.732 2.035c-.808.474-1.754.712-2.839.712-1.155 0-2.205-.227-3.152-.678a5.61 5.61 0 0 1-2.216-1.899 4.857 4.857 0 0 1-.797-2.712c0-1.22.312-2.18.936-2.881.646-.7 1.673-1.209 3.082-1.525 1.408-.317 3.336-.475 5.783-.475h.9v-.61c0-.995-.219-1.695-.658-2.102-.438-.407-1.2-.61-2.285-.61-.831 0-1.755.147-2.771.44-.337.098-.669.208-.996.33-1.049.393-2.285-.029-2.705-1.067-.342-.845-.023-1.824.815-2.183a16.583 16.583 0 0 1 2.159-.74c1.431-.407 2.759-.61 3.982-.61zm-.935 13.796c1.016 0 1.836-.328 2.459-.983.624-.678.935-1.548.935-2.61v-.576h-.588c-1.871 0-3.186.146-3.948.44-.739.294-1.108.825-1.108 1.594 0 .61.207 1.118.623 1.525.439.407.981.61 1.627.61zM51.5 15a2.5 2.5 0 1 1-5 0 2.5 2.5 0 0 1 5 0z" fill="#605DEC"/>
</svg>
