<svg width="320" height="180" viewBox="0 0 320 180" fill="none" xmlns="http://www.w3.org/2000/svg">
    <path d="M67.217 108.501H119a6 6 0 1 1 0 12H74.151a12 12 0 0 1-10.176-5.64l-.15-.24c-1.665-2.664.25-6.12 3.392-6.12z" fill="url(#xg188jfh2a)"/>
    <path opacity=".5" d="M118.994 120.501h-44.85c-2.83 0-5.523-.997-7.644-2.75h57.538a5.993 5.993 0 0 1-5.044 2.75z" fill="#407AEA"/>
    <path d="M85.494 165.751H38c-5.523 0-10-4.477-10-10s4.477-10 10-10h47.494l37.225-76.518a39.99 39.99 0 0 0 4.031-17.499V24.501c0-5.523 4.477-10 10-10H194v46L139 154.5h-8v11.251H85.494z" fill="url(#sw0gng8gnb)"/>
    <path opacity=".5" d="M140.5 22.854v12.233a5 5 0 0 0 5 5h22.818a5 5 0 0 0 5-5V22.854c0-3.491 2.06-6.564 5.182-8.353h-32.818c-3.122 1.789-5.182 4.862-5.182 8.353z" fill="#D5FFFA"/>
    <path opacity=".5" d="M85.427 165.751H37.933a10 10 0 0 1-8.933-5.5h101.933v5.5H85.427z" fill="#1513A0"/>
    <path fill-rule="evenodd" clip-rule="evenodd" d="M194.25 14.501c5.523 0 10 4.477 10 10v27.233c0 9.094-2.067 18.07-6.046 26.248L160.979 154.5a20 20 0 0 1-17.985 11.251H95.5c-5.523 0-10-4.477-10-10s4.477-10 10-10h47.494l37.225-76.518a39.99 39.99 0 0 0 4.031-17.499V24.501c0-5.523 4.477-10 10-10z" fill="url(#e45vnf3akc)"/>
    <path d="M155.283 154.274c-1.568 3.198-4.838 5.227-8.423 5.227h-35.177c-2.586 0-4.683-2.08-4.683-4.646 0-2.565 2.097-4.645 4.683-4.645h35.177l5.921-11.236a4.632 4.632 0 0 1 4.098-2.473c3.474 0 5.712 3.682 4.113 6.765l-5.709 11.008z" fill="url(#7mbp42e52d)"/>
    <path d="M139.717 108.501H206.5a6 6 0 1 1 0 12h-59.849a11.999 11.999 0 0 1-10.176-5.64l-.15-.24c-1.665-2.664.25-6.12 3.392-6.12z" fill="url(#hpjcxzvrue)"/>
    <path opacity=".5" d="M206.494 120.501h-59.849c-2.83 0-5.524-.997-7.645-2.75h72.538a5.993 5.993 0 0 1-5.044 2.75z" fill="#407AEA"/>
    <path d="M172.994 165.751H125.5c-5.523 0-10-4.477-10-10s4.477-10 10-10h47.494l37.225-76.518a39.99 39.99 0 0 0 4.031-17.499V24.501c0-5.523 4.477-10 10-10h57.25v46l-55 93.999h-8v11.251h-45.506z" fill="url(#uqmub939kf)"/>
    <path d="M172.994 165.751H125.5c-5.523 0-10-4.477-10-10s4.477-10 10-10h47.494l37.225-76.518a39.99 39.99 0 0 0 4.031-17.499V24.501c0-5.523 4.477-10 10-10h57.25v46l-55 93.999h-8v11.251h-45.506z" fill="url(#k9t2f8uiig)"/>
    <path opacity=".5" d="M228 22.854v12.233a5 5 0 0 0 5 5h22.818a5 5 0 0 0 5-5V22.854c0-3.491 2.06-6.564 5.182-8.353h-32.818C230.06 16.29 228 19.363 228 22.854z" fill="#D5FFFA"/>
    <path opacity=".5" d="M172.927 165.751h-47.494a9.999 9.999 0 0 1-8.933-5.5h101.933v5.5h-45.506z" fill="#1513A0"/>
    <path fill-rule="evenodd" clip-rule="evenodd" d="M281.75 14.501c5.523 0 10 4.477 10 10v27.233c0 9.094-2.067 18.07-6.046 26.248L248.479 154.5a20 20 0 0 1-17.985 11.251H183c-5.523 0-10-4.477-10-10s4.477-10 10-10h47.494l37.225-76.518a39.99 39.99 0 0 0 4.031-17.499V24.501c0-5.523 4.477-10 10-10z" fill="url(#j6i02q6jzh)"/>
    <path fill-rule="evenodd" clip-rule="evenodd" d="M281.75 14.501c5.523 0 10 4.477 10 10v27.233c0 9.094-2.067 18.07-6.046 26.248L248.479 154.5a20 20 0 0 1-17.985 11.251H183c-5.523 0-10-4.477-10-10s4.477-10 10-10h47.494l37.225-76.518a39.99 39.99 0 0 0 4.031-17.499V24.501c0-5.523 4.477-10 10-10z" fill="url(#qgvrl0iqii)"/>
    <path d="M242.783 154.274c-1.568 3.198-4.838 5.227-8.423 5.227h-35.177c-2.586 0-4.683-2.08-4.683-4.646 0-2.565 2.097-4.645 4.683-4.645h35.177l5.921-11.236a4.632 4.632 0 0 1 4.098-2.473c3.474 0 5.712 3.682 4.113 6.765l-5.709 11.008z" fill="url(#dqixq9xfyj)"/>
    <path d="M204.717 108.501H256.5a6 6 0 1 1 0 12h-44.849a11.999 11.999 0 0 1-10.176-5.64l-.15-.24c-1.665-2.664.25-6.12 3.392-6.12z" fill="url(#dyprkzilok)"/>
    <path opacity=".5" d="M256.5 120.501h-44.849a12 12 0 0 1-7.645-2.75h57.538a5.993 5.993 0 0 1-5.044 2.75z" fill="#407AEA"/>
    <defs>
        <linearGradient id="xg188jfh2a" x1="86.406" y1="108.501" x2="86.406" y2="120.501" gradientUnits="userSpaceOnUse">
            <stop stop-color="#BAECF7"/>
            <stop offset="1" stop-color="#84DDF1"/>
        </linearGradient>
        <linearGradient id="sw0gng8gnb" x1="116" y1="14.501" x2="116" y2="165.751" gradientUnits="userSpaceOnUse">
            <stop stop-color="#5CD6C0"/>
            <stop offset=".568" stop-color="#70F2F2"/>
            <stop offset="1" stop-color="#26AEF2"/>
        </linearGradient>
        <linearGradient id="e45vnf3akc" x1="144.875" y1="14.501" x2="144.875" y2="165.751" gradientUnits="userSpaceOnUse">
            <stop stop-color="#4A7DDF"/>
            <stop offset="1" stop-color="#3595F4"/>
        </linearGradient>
        <linearGradient id="7mbp42e52d" x1="160.25" y1="136.501" x2="106.25" y2="156.001" gradientUnits="userSpaceOnUse">
            <stop stop-color="#CBD4E6"/>
            <stop offset=".322" stop-color="#ACC5F6"/>
            <stop offset="1" stop-color="#CBD4E6"/>
        </linearGradient>
        <linearGradient id="hpjcxzvrue" x1="165" y1="108.501" x2="165" y2="120.501" gradientUnits="userSpaceOnUse">
            <stop stop-color="#BAECF7"/>
            <stop offset="1" stop-color="#84DDF1"/>
        </linearGradient>
        <linearGradient id="uqmub939kf" x1="203.5" y1="14.501" x2="203.5" y2="165.751" gradientUnits="userSpaceOnUse">
            <stop offset=".021" stop-color="#9D8CF2"/>
            <stop offset=".568" stop-color="#707FF2"/>
            <stop offset="1" stop-color="#266AF2"/>
        </linearGradient>
        <linearGradient id="k9t2f8uiig" x1="203.5" y1="14.501" x2="203.5" y2="165.751" gradientUnits="userSpaceOnUse">
            <stop stop-color="#5CD6C0"/>
            <stop offset=".568" stop-color="#70F2F2"/>
            <stop offset="1" stop-color="#26AEF2"/>
        </linearGradient>
        <linearGradient id="j6i02q6jzh" x1="232.375" y1="14.501" x2="232.375" y2="165.751" gradientUnits="userSpaceOnUse">
            <stop stop-color="#4413A0"/>
            <stop offset=".521" stop-color="#3D13A0"/>
            <stop offset="1" stop-color="#1513A0"/>
        </linearGradient>
        <linearGradient id="qgvrl0iqii" x1="232.375" y1="14.501" x2="232.375" y2="165.751" gradientUnits="userSpaceOnUse">
            <stop stop-color="#4A7DDF"/>
            <stop offset="1" stop-color="#3595F4"/>
        </linearGradient>
        <linearGradient id="dqixq9xfyj" x1="247.75" y1="136.501" x2="193.75" y2="156.001" gradientUnits="userSpaceOnUse">
            <stop stop-color="#CBD4E6"/>
            <stop offset=".322" stop-color="#ACC5F6"/>
            <stop offset="1" stop-color="#CBD4E6"/>
        </linearGradient>
        <linearGradient id="dyprkzilok" x1="223.906" y1="108.501" x2="223.906" y2="120.501" gradientUnits="userSpaceOnUse">
            <stop stop-color="#BAECF7"/>
            <stop offset="1" stop-color="#84DDF1"/>
        </linearGradient>
    </defs>
</svg>
