<svg width="320" height="180" viewBox="0 0 320 180" fill="none" xmlns="http://www.w3.org/2000/svg">
    <path d="M34.717 108.501H86.5a6 6 0 1 1 0 12H41.651a12 12 0 0 1-10.176-5.64l-.15-.24c-1.665-2.664.25-6.12 3.392-6.12z" fill="url(#2s8170v2ea)"/>
    <path opacity=".5" d="M86.494 120.501h-44.85c-2.83 0-5.523-.997-7.644-2.75h57.538a5.994 5.994 0 0 1-5.044 2.75z" fill="#407AEA"/>
    <path d="M62.994 165.751H15.5c-5.523 0-10-4.477-10-10s4.477-10 10-10h47.494l37.225-76.518a39.99 39.99 0 0 0 4.031-17.499V24.501c0-5.523 4.477-10 10-10h47.25v46l-45 93.999h-8v11.251H62.994z" fill="url(#04xe1w8swb)"/>
    <path opacity=".5" d="M115.5 22.854v12.233a5 5 0 0 0 5 5H139a5 5 0 0 0 5-5V22.854a9.991 9.991 0 0 1 4.5-8.353H120a9.991 9.991 0 0 0-4.5 8.353z" fill="#BCBAF7"/>
    <path opacity=".5" d="M62.994 165.751H15.5a10 10 0 0 1-8.933-5.5H108.5v5.5H62.994z" fill="#1513A0"/>
    <path fillRule="evenodd" clipRule="evenodd" d="M161.75 14.501c5.523 0 10 4.477 10 10v27.233c0 9.094-2.067 18.07-6.046 26.248L128.479 154.5a20 20 0 0 1-17.985 11.251H63c-5.523 0-10-4.477-10-10s4.477-10 10-10h47.494l37.225-76.518a39.991 39.991 0 0 0 4.031-17.499V24.501c0-5.523 4.477-10 10-10z" fill="url(#rs6oyucs7c)"/>
    <path d="M122.783 154.274c-1.568 3.198-4.838 5.227-8.423 5.227H79.183c-2.586 0-4.683-2.08-4.683-4.646 0-2.565 2.097-4.645 4.683-4.645h35.177l5.921-11.236a4.632 4.632 0 0 1 4.098-2.473c3.474 0 5.712 3.682 4.113 6.765l-5.709 11.008z" fill="url(#k2sl6rf3md)"/>
    <path d="M84.717 108.501H136.5a6 6 0 1 1 0 12H91.651a12 12 0 0 1-10.176-5.64l-.15-.24c-1.665-2.664.25-6.12 3.392-6.12z" fill="url(#0nf2akup3e)"/>
    <path opacity=".5" d="M136.5 120.501H91.651c-2.83 0-5.523-.997-7.645-2.75h57.538a5.993 5.993 0 0 1-5.044 2.75z" fill="#407AEA"/>
    <path d="M110.191 108.501h49.942a6 6 0 1 1 0 12h-43.129a11.792 11.792 0 0 1-10.084-5.679l-.15-.247c-1.616-2.666.303-6.074 3.421-6.074z" fill="url(#8q91w32txf)"/>
    <path opacity=".5" d="M160.308 120.501h-43.501c-2.744 0-5.357-.997-7.414-2.75H165.2c-1.036 1.655-2.84 2.75-4.892 2.75z" fill="#407AEA"/>
    <path d="M137.515 165.751H91.449c-5.356 0-9.699-4.477-9.699-10s4.343-10 9.7-10h46.065l36.106-76.518a41.035 41.035 0 0 0 3.909-17.499V24.501c0-5.523 4.343-10 9.699-10h45.829v46L189.412 154.5h-7.76v11.251h-44.137z" fill="url(#vqn404bozg)"/>
    <path opacity=".5" d="M188.441 22.854v12.233a5 5 0 0 0 5 5h17.643a5 5 0 0 0 5-5V22.854c0-3.491 1.735-6.564 4.365-8.353h-27.643c-2.63 1.789-4.365 4.862-4.365 8.353z" fill="#BCBAF7"/>
    <path opacity=".5" d="M137.515 165.751H91.449c-3.787 0-7.067-2.237-8.664-5.5h98.867v5.5h-44.137z" fill="#1513A0"/>
    <path fillRule="evenodd" clipRule="evenodd" d="M233.301 14.501c5.356 0 9.699 4.477 9.699 10v27.233c0 9.094-2.005 18.07-5.864 26.248L201.03 154.5c-3.247 6.883-10.02 11.251-17.444 11.251h-46.065c-5.357 0-9.7-4.477-9.7-10s4.343-10 9.7-10h46.065l36.106-76.518a41.02 41.02 0 0 0 3.909-17.499V24.501c0-5.523 4.343-10 9.7-10z" fill="url(#anftst94jh)"/>
    <path d="M195.506 154.274c-1.521 3.198-4.693 5.227-8.17 5.227h-34.119c-2.508 0-4.542-2.08-4.542-4.646 0-2.565 2.034-4.645 4.542-4.645h34.119l5.747-11.245a4.523 4.523 0 0 1 4.027-2.464c3.366 0 5.552 3.546 4.039 6.554l-5.643 11.219z" fill="url(#6euk56z34i)"/>
    <path d="M166.892 108.501h64.492a6 6 0 0 1 0 12h-57.562a12 12 0 0 1-10.261-5.779l-.09-.147c-1.616-2.666.304-6.074 3.421-6.074z" fill="url(#sixj12pbrj)"/>
    <path opacity=".5" d="M231.558 120.501h-58.049c-2.745 0-5.358-.997-7.415-2.75h70.356c-1.036 1.655-2.84 2.75-4.892 2.75z" fill="#407AEA"/>
    <path d="M208.765 165.751h-46.066c-5.356 0-9.699-4.477-9.699-10s4.343-10 9.699-10h46.066l36.106-76.518a41.035 41.035 0 0 0 3.909-17.499V24.501c0-5.523 4.343-10 9.699-10h45.829v46L260.662 154.5h-7.76v11.251h-44.137z" fill="url(#t2jssytstk)"/>
    <path opacity=".5" d="M259.691 22.854v12.233a5 5 0 0 0 5 5h17.643a5 5 0 0 0 5-5V22.854c0-3.491 1.735-6.564 4.365-8.353h-27.643c-2.63 1.789-4.365 4.862-4.365 8.353z" fill="#BCBAF7"/>
    <path opacity=".5" d="M208.765 165.751h-46.066c-3.787 0-7.067-2.237-8.664-5.5h98.867v5.5h-44.137z" fill="#1513A0"/>
    <path fillRule="evenodd" clipRule="evenodd" d="M304.551 14.501c5.356 0 9.699 4.477 9.699 10v27.233c0 9.094-2.005 18.07-5.864 26.248L272.28 154.5c-3.247 6.883-10.02 11.251-17.444 11.251h-46.065c-5.357 0-9.7-4.477-9.7-10s4.343-10 9.7-10h46.065l36.106-76.518a41.02 41.02 0 0 0 3.909-17.499V24.501c0-5.523 4.343-10 9.7-10z" fill="url(#5nm8guyu1l)"/>
    <path d="M266.756 154.274c-1.521 3.198-4.693 5.227-8.17 5.227h-34.119c-2.508 0-4.542-2.08-4.542-4.646 0-2.565 2.034-4.645 4.542-4.645h34.119l5.747-11.245a4.523 4.523 0 0 1 4.027-2.464c3.366 0 5.552 3.546 4.039 6.554l-5.643 11.219z" fill="url(#ctfcttp4tm)"/>
    <path d="M229.937 108.501h49.943a6 6 0 0 1 0 12h-43.13a11.792 11.792 0 0 1-10.084-5.679l-.15-.247c-1.616-2.666.304-6.074 3.421-6.074z" fill="url(#2wvnziifpn)"/>
    <path opacity=".5" d="M280.06 120.501h-43.5c-2.745 0-5.357-.997-7.415-2.75h55.808c-1.036 1.655-2.841 2.75-4.893 2.75z" fill="#407AEA"/>
    <defs>
        <linearGradient id="2s8170v2ea" x1="60" y1="108.501" x2="60" y2="120.501" gradientUnits="userSpaceOnUse">
            <stop stop-color="#BCBAF7"/>
            <stop offset="1" stop-color="#8684F1"/>
        </linearGradient>
        <linearGradient id="04xe1w8swb" x1="83.5" y1="14.501" x2="83.5" y2="165.751" gradientUnits="userSpaceOnUse">
            <stop offset=".021" stop-color="#9D8CF2"/>
            <stop offset=".568" stop-color="#707FF2"/>
            <stop offset="1" stop-color="#266AF2"/>
        </linearGradient>
        <linearGradient id="rs6oyucs7c" x1="112.375" y1="14.501" x2="112.375" y2="165.751" gradientUnits="userSpaceOnUse">
            <stop stop-color="#4413A0"/>
            <stop offset=".521" stop-color="#3D13A0"/>
            <stop offset="1" stop-color="#1513A0"/>
        </linearGradient>
        <linearGradient id="k2sl6rf3md" x1="127.75" y1="136.501" x2="73.75" y2="156.001" gradientUnits="userSpaceOnUse">
            <stop stop-color="#CBD4E6"/>
            <stop offset=".322" stop-color="#ACC5F6"/>
            <stop offset="1" stop-color="#CBD4E6"/>
        </linearGradient>
        <linearGradient id="0nf2akup3e" x1="110" y1="108.501" x2="110" y2="120.501" gradientUnits="userSpaceOnUse">
            <stop stop-color="#BCBAF7"/>
            <stop offset="1" stop-color="#8684F1"/>
        </linearGradient>
        <linearGradient id="8q91w32txf" x1="134.611" y1="108.501" x2="134.611" y2="120.501" gradientUnits="userSpaceOnUse">
            <stop stop-color="#BCBAF7"/>
            <stop offset="1" stop-color="#8684F1"/>
        </linearGradient>
        <linearGradient id="vqn404bozg" x1="157.404" y1="14.501" x2="157.404" y2="165.751" gradientUnits="userSpaceOnUse">
            <stop offset=".021" stop-color="#9D8CF2"/>
            <stop offset=".568" stop-color="#707FF2"/>
            <stop offset="1" stop-color="#266AF2"/>
        </linearGradient>
        <linearGradient id="anftst94jh" x1="185.411" y1="14.501" x2="185.411" y2="165.751" gradientUnits="userSpaceOnUse">
            <stop stop-color="#4413A0"/>
            <stop offset=".521" stop-color="#3D13A0"/>
            <stop offset="1" stop-color="#1513A0"/>
        </linearGradient>
        <linearGradient id="6euk56z34i" x1="200.323" y1="136.501" x2="147.587" y2="154.972" gradientUnits="userSpaceOnUse">
            <stop stop-color="#CBD4E6"/>
            <stop offset=".322" stop-color="#ACC5F6"/>
            <stop offset="1" stop-color="#CBD4E6"/>
        </linearGradient>
        <linearGradient id="sixj12pbrj" x1="191.312" y1="108.501" x2="191.312" y2="120.501" gradientUnits="userSpaceOnUse">
            <stop stop-color="#BCBAF7"/>
            <stop offset="1" stop-color="#8684F1"/>
        </linearGradient>
        <linearGradient id="t2jssytstk" x1="228.654" y1="14.501" x2="228.654" y2="165.751" gradientUnits="userSpaceOnUse">
            <stop offset=".021" stop-color="#9D8CF2"/>
            <stop offset=".568" stop-color="#707FF2"/>
            <stop offset="1" stop-color="#266AF2"/>
        </linearGradient>
        <linearGradient id="5nm8guyu1l" x1="256.661" y1="14.501" x2="256.661" y2="165.751" gradientUnits="userSpaceOnUse">
            <stop stop-color="#4413A0"/>
            <stop offset=".521" stop-color="#3D13A0"/>
            <stop offset="1" stop-color="#1513A0"/>
        </linearGradient>
        <linearGradient id="ctfcttp4tm" x1="271.573" y1="136.501" x2="218.837" y2="154.972" gradientUnits="userSpaceOnUse">
            <stop stop-color="#CBD4E6"/>
            <stop offset=".322" stop-color="#ACC5F6"/>
            <stop offset="1" stop-color="#CBD4E6"/>
        </linearGradient>
        <linearGradient id="2wvnziifpn" x1="254.357" y1="108.501" x2="254.357" y2="120.501" gradientUnits="userSpaceOnUse">
            <stop stop-color="#BCBAF7"/>
            <stop offset="1" stop-color="#8684F1"/>
        </linearGradient>
    </defs>
</svg>
